<?xml version="1.0" encoding="utf-8"?>
<!-- Generator: Adobe Illustrator 19.2.1, SVG Export Plug-In . SVG Version: 6.00 Build 0)  -->
<svg version="1.1" id="Layer_1" xmlns="http://www.w3.org/2000/svg" xmlns:xlink="http://www.w3.org/1999/xlink" x="0px" y="0px"
	 viewBox="0 0 108.2 108.2" style="enable-background:new 0 0 108.2 108.2;" xml:space="preserve">
<style type="text/css">
	.st0{fill-rule:evenodd;clip-rule:evenodd;fill:#010101;}
	.st1{fill-rule:evenodd;clip-rule:evenodd;fill:#FFFFFF;}
</style>
<g>
	<path class="st0" d="M54,0C24.2,0,0,24.2,0,54.2c0,29.8,24.2,54,54,54c30,0,54.2-24.2,54.2-54C108.2,24.2,84,0,54,0L54,0z"/>
	<path class="st1" d="M35.5,67.8h-6v-3.1c-2.7,2.3-5.3,3.1-8.2,3.1c-5.8,0-9.2-1.8-11.5-4.5c-2.3-2.9-3.5-6.2-3.5-9
		c0-3.9,1.2-7.4,3.7-10.1c2.9-3.5,7.4-4.7,11.5-4.7c3.7,0,14,2.3,14,14.6V67.8L35.5,67.8z"/>
	<path class="st1" d="M65.9,64.1c-2.7,2.9-6.4,4.7-10.3,4.7c-3.7,0-8.2-1.2-11.3-4.3c-2.9-3.1-4.1-6.4-4.1-10.9c0-0.6,0-1.8,0-1.8
		V31h6.6v12.3l0.2-0.2c0,0,3.1-3.3,7.8-3.3c8,0,14.6,6.4,14.6,14.2C69.4,57.3,68,61.4,65.9,64.1L65.9,64.1z"/>
	<path class="st1" d="M87.7,68.8c-3.7,0-7.4-1.6-10.1-4.3c-3.1-2.9-4.5-6.6-4.5-10.7c0-8.2,6.8-14.6,14.6-14.6
		c6.2,0,12.1,4.1,13.8,10.1h-7.4c-1.4-2.5-3.7-3.5-6.6-3.5c-4.7,0-7.8,3.5-7.8,8c0,4.9,3.5,8.4,8.2,8.4c2.5,0,4.7-1.4,6.2-3.5h7.4
		C99.6,64.7,93.9,68.8,87.7,68.8L87.7,68.8z"/>
	<path class="st0" d="M21.2,45.4c-4.7,0-8.2,3.7-8.2,8.4c0,4.7,3.7,8.2,8.2,8c4.7,0.2,8.2-3.5,8.2-8.2
		C29.4,48.9,25.9,45.4,21.2,45.4L21.2,45.4z"/>
	<path class="st0" d="M55.5,46.2c-4.5,0-8.4,3.3-8.4,8c0,4.5,3.5,8.4,8.4,8.4c4.5,0,7.8-3.5,7.8-8C63.3,49.9,60.2,46.2,55.5,46.2
		L55.5,46.2z"/>
</g>
</svg>
