<?xml version="1.0" encoding="utf-8"?>
<!-- Generator: Adobe Illustrator 19.2.1, SVG Export Plug-In . SVG Version: 6.00 Build 0)  -->
<svg version="1.1" id="Layer_1" xmlns="http://www.w3.org/2000/svg" xmlns:xlink="http://www.w3.org/1999/xlink" x="0px" y="0px"
	 viewBox="0 0 189.6 60.1" style="enable-background:new 0 0 189.6 60.1;" xml:space="preserve">
<style type="text/css">
	.st0{fill:#010101;}
</style>
<g>
	<path class="st0" d="M7.5,58.4c2.3,0,4.3,0,6.3,0c0,0.1,0.1,0.3,0.1,0.4c-0.3,0.1-0.5,0.4-0.8,0.4c-4.1,0-8.3,0-12.4,0
		c-0.2,0-0.5-0.2-0.7-0.3c0-0.2,0-0.3,0.1-0.5c1.2,0,2.4-0.1,3.6,0c1.2,0.1,1.9-0.3,2.6-1.3C14.5,45,22.8,32.8,31,20.7
		c4.4-6.5,8.9-13,13.4-19.5c0.2-0.3,0.5-0.6,0.9-1.2c0.1,0.9,0.1,1.3,0.1,1.8c0,18.3,0,36.6,0,54.9c0,1.3,0.4,1.8,1.7,1.7
		c1-0.1,1.9,0,2.9,0c0,0.1,0,0.3,0.1,0.4c-0.4,0.1-0.7,0.4-1.1,0.4c-4.9,0-9.7,0-14.6,0c-0.3,0-0.6-0.2-0.8-0.3c0-0.2,0-0.3,0.1-0.5
		c1.2,0,2.4-0.1,3.6,0c1.3,0.1,1.7-0.3,1.7-1.6C39,49.5,39,42.2,39,35c0-1.2-0.3-1.7-1.6-1.7c-3.9,0.1-7.7,0-11.6,0
		c-0.8,0-1.3,0.2-1.7,0.9C19,41.6,13.9,49,8.8,56.4C8.4,56.9,8.1,57.5,7.5,58.4z M39,12.9c-0.1,0-0.3-0.1-0.4-0.1
		c-4.4,6.5-8.7,12.9-13.2,19.6c0.6,0.1,1,0.2,1.3,0.2c3.6,0,7.3,0,10.9,0c1.1,0,1.4-0.4,1.4-1.5c-0.1-5.2,0-10.3,0-15.5
		C39,14.6,39,13.7,39,12.9z"/>
	<path class="st0" d="M147.4,15.7c1.4,0,2.8,0,4.1,0c0.3,0,0.7,0.6,0.7,0.9c-0.5,2.7-1.2,5.4-1.8,8.1c-0.1,0.6-0.2,1.1-0.2,1.9
		c4.7,0,9.3,0,14.1,0c-0.2,1.3-0.4,2.5-0.6,3.7c-0.9,4.3-1.9,8.7-2.8,13c-0.8,3.5-1.6,6.9-2.3,10.4c-0.2,0.8-0.3,1.6-0.2,2.4
		c0.1,1.3,1.1,1.8,2.3,1.3c1.7-0.8,2.4-2.4,3.3-4c0.2-0.4,0.5-0.8,0.9-1.2c0.2,1.4-0.7,2.4-1.3,3.4c-1.1,1.9-2.7,3.2-4.7,4.1
		c-1.9,0.9-5.8-0.9-5.6-3.4c0.3-2.4,0.6-4.8,1.1-7.2c1.1-5.4,2.3-10.8,3.5-16.2c0.3-1.5,0.7-3,1.1-4.4c0.2-0.8,0-1.1-0.8-1.1
		c-2.5,0-5,0-7.6,0.1c-0.4,0-0.9,0.6-1,1.1c-1.1,4.5-2.1,9-3.1,13.5c-0.9,3.8-1.7,7.6-2.5,11.4c-0.2,0.9-0.2,1.8-0.2,2.7
		c0.1,1.1,1.1,1.7,2.1,1.2c1.9-0.8,2.7-2.6,3.6-4.2c0.2-0.4,0.4-0.7,0.9-1c0,0.2,0.1,0.5,0.1,0.7c-1.2,3.1-2.9,5.6-6.1,6.9
		c-1.9,0.8-5.8-0.8-5.5-3.7c0.2-2.1,0.6-4.3,1-6.4c1-5,2.2-10,3.2-15c0.5-2.1,0.9-4.3,1.4-6.4c0-0.2,0-0.4,0-0.9c-1.7,0-3.4,0-5.1,0
		c0-0.2-0.1-0.3-0.1-0.5c0.3-0.1,0.6-0.3,0.9-0.3c1.2,0,2.4-0.1,3.6,0c0.9,0,1.2-0.3,1.4-1.2C145.9,22.2,146.6,19,147.4,15.7z"/>
	<path class="st0" d="M108.1,52.5c-0.6,1.3-1.2,2.6-1.9,3.8c-1.1,1.7-2.6,2.8-4.5,3.5c-2.3,0.8-5.1-1-5.6-3.5
		c-0.1-0.3-0.1-0.7-0.1-0.9c-1.2,1.2-2.3,2.5-3.7,3.4c-3.8,2.8-8.5-0.1-9.3-3.5c-0.4-1.7-0.7-3.5-0.5-5.2c0.5-6.6,2-13,5.1-18.9
		c1.3-2.3,3.1-4.1,5.8-4.9c3.7-1.1,6.1-0.1,8.2,3.4c0.2-0.7,0.3-1.1,0.4-1.6c0.2-1,0.6-1.6,1.8-1.5c1.1,0.1,2.2,0,3.6,0
		c-0.6,2.8-1.2,5.4-1.7,8.1c-1.4,6.5-2.9,13-4.3,19.4c0,0.1-0.1,0.2-0.1,0.3c0,1.1-0.5,2.4,0.9,3c1.3,0.6,2.3-0.3,3-1.2
		c0.8-1,1.3-2.1,1.9-3.2c0.2-0.3,0.3-0.6,0.5-0.8C107.7,52.3,107.9,52.4,108.1,52.5z M100.7,32.9c-0.1,0-0.2,0-0.3-0.1
		c0-0.6,0-1.3,0-1.9c-0.1-1.8-0.9-3.2-2.3-3.6c-1.7-0.5-3.2,0-4.2,1.3c-1,1.3-1.9,2.8-2.4,4.3c-1.2,4.2-2.4,8.4-3.3,12.6
		c-0.6,3-0.9,6-1.1,9.1c-0.1,2.5,1.5,3.8,3.9,3.3c0.8-0.2,1.7-0.7,2.3-1.3c1-1.1,2-2.4,2.5-3.8c1-2.7,1.8-5.4,2.4-8.2
		C99.2,40.8,99.9,36.8,100.7,32.9z"/>
	<path class="st0" d="M112.2,26.9c3.2,0,6.3,0,9.6,0c-0.3,1.3-0.5,2.5-0.7,3.6c1.1-1,2-2,3.1-2.8c2.5-2,6.2-2.1,8.3-0.5
		c1.6,1.2,2.1,2.9,1.8,4.8c-0.4,2.9-1.1,5.8-1.7,8.7c-1,4.6-2,9.2-3,13.8c-0.1,0.5-0.1,1-0.1,1.5c0.1,1.4,1.1,1.9,2.4,1.4
		c1.9-0.9,2.5-2.7,3.5-4.3c0.2-0.3,0.4-0.6,0.6-0.9c0.2,0.1,0.3,0.2,0.5,0.3c-0.6,1.2-1.2,2.4-1.8,3.6c-1.1,2-2.8,3.2-4.9,3.9
		c-2.7,0.9-5.8-2-5.2-4.9c1.5-7.2,3.1-14.4,4.7-21.6c0.2-0.7,0.2-1.5,0.3-2.3c0.1-1.2,0-2.5-1.2-2.8c-1.1-0.3-2.5-0.3-3.4,0.2
		c-2.3,1.1-3.6,3.4-4.3,5.8c-1.1,3.8-2,7.6-2.9,11.5c-0.9,3.9-1.7,7.9-2.6,11.8c-0.3,1.2-0.8,2-2.2,1.7c-0.1,0-0.2,0-0.3,0
		c-3.6,0-3,0.2-2.3-3.1c1.1-5.6,2.4-11.1,3.6-16.7c0.8-3.6,1.6-7.2,2.5-10.7c0.2-0.9-0.1-1.2-1-1.2c-1,0-2.1,0-3.1,0
		C112.2,27.3,112.2,27.1,112.2,26.9z"/>
	<path class="st0" d="M78.7,3.4c-0.9,0-1.6,0-2.3,0c-0.7,0-1.3,0-2,0c0.7-0.9,7.5-1.1,9.6-0.6c-0.4,1.7-0.7,3.5-1.1,5.2
		c-0.9,4.1-1.9,8.1-2.8,12.2c-1.2,5.2-2.3,10.3-3.5,15.5c-1.1,5.1-2.3,10.3-3.4,15.4c-0.3,1.3-0.6,2.5-0.7,3.8
		c-0.1,0.9-0.3,2,0.8,2.5c1.1,0.6,2-0.1,2.6-0.9c0.9-1.1,1.6-2.4,2.4-3.5c0.2-0.3,0.4-0.6,0.7-1.1c0.1,0.5,0.3,0.8,0.2,1
		c-1.3,3-3,5.7-6.3,6.9c-1.5,0.5-2.8,0.1-3.9-0.7c-1.3-0.9-1.7-2.3-1.5-3.8c0.4-2.2,0.8-4.3,1.3-6.5c1.1-5.1,2.2-10.2,3.3-15.2
		c0.9-3.9,1.8-7.8,2.7-11.7c0.6-2.7,1.2-5.4,1.8-8.2c0.7-3.1,1.4-6.3,2.1-9.4C78.7,4.1,78.6,3.9,78.7,3.4z"/>
	<path class="st0" d="M63.9,52.4c-0.5,2.1-1.5,3.9-3.1,5.3c-1,0.9-2.3,1.7-3.6,2.2c-1.7,0.7-5-0.7-5-3.5c0-1.4,0.2-2.9,0.5-4.3
		c1.2-5.6,2.5-11.2,3.7-16.8c0.5-2.1,1-4.2,1.4-6.3c0.1-0.4,0.1-0.9,0.2-1.5c-1.9,0-3.6,0-5.3,0c0-0.2,0-0.4,0-0.6
		c1.8-0.4,3.8,0,5.6-0.3c0.8-3.3,1.6-6.6,2.2-9.9c0.2-0.8,0.5-1.1,1.2-1.1c1.2,0,2.5,0,4,0c-0.8,3.7-1.6,7.3-2.4,11.1
		c1.9,0,3.5,0,5.2,0c0,0.1,0,0.3,0,0.4c-0.2,0.1-0.5,0.3-0.7,0.3c-0.4,0.1-0.8,0-1.2,0c-3.6,0-3.6,0-4.3,3.6c-1,4.5-2,8.9-2.9,13.4
		c-0.7,3.4-1.5,6.7-2.2,10.1c-0.1,0.5-0.1,1-0.1,1.5c0.1,1.3,1.1,1.8,2.3,1.3c1.9-0.8,2.5-2.6,3.4-4.1c0.2-0.3,0.4-0.7,0.6-1.1
		C63.7,52.2,63.8,52.3,63.9,52.4z"/>
	<path class="st0" d="M172.5,51.4c0.1,1.3,0.1,2.5,0.3,3.6c0.8,3.3,4.5,4.2,7.1,1.7c1.6-1.5,2.6-3.6,3.9-5.4
		c0.2-0.3,0.2-0.6,0.4-0.8c0.1-0.2,0.4-0.2,0.7-0.3c0.1,0.2,0.2,0.5,0.2,0.7c-1.8,4-4,7.6-8.7,8.9c-2.6,0.7-7.3-1.1-8.4-4.3
		c-0.9-2.5-0.7-5-0.4-7.5c0.6-4.6,1.8-9.1,3.5-13.4c1.3-3.2,3.2-6.1,6.4-7.6c3.3-1.5,6.6-1.6,9.8,0.3c2,1.3,2.7,4.4,1.6,6.5
		c-0.5,1-1.4,1.5-2.6,1.2c-1.2-0.3-1.7-1.2-1.5-2.3c0.1-0.9,0.5-1.7,0.7-2.6c0.6-2.3-0.7-3.7-3.1-3.2c-2.2,0.5-3.7,2-4.5,3.9
		c-1.4,3.3-2.5,6.6-3.6,10c-0.6,1.7-0.9,3.6-1.2,5.4C172.9,48,172.7,49.8,172.5,51.4z"/>
	<path class="st0" d="M7.4,15.7C7.3,15.8,7.4,15.7,7.4,15.7c2.2-0.1,2.3-0.1,1.9,2c-0.3,1.7-0.7,3.4-1.1,5.1
		c-0.1,0.3-0.1,0.6-0.1,0.9c0.2,0,0.3,0,0.4,0c0.9-0.6,2.1-1.3,2.9-0.2c0.5,0.7,0.5,1.9,0.3,2.9c-0.2,1.5-0.7,3.1-1,4.6
		c-0.1,0.5,0,0.9,0,1.7c0.7-0.5,1.1-0.8,1.5-1.1c0.1,0.1,0.1,0.1,0.2,0.2c-0.4,0.4-0.8,1-1.4,1.3c-0.4,0.2-1.1,0.2-1.5,0
		C9.2,32.8,9,32.1,9,31.7c0.4-2.1,0.9-4.1,1.3-6.2c0.1-0.5-0.2-1.1-0.3-1.6c-0.5,0.2-1.2,0.2-1.5,0.5c-0.6,0.8-1.1,1.8-1.3,2.7
		c-0.5,1.6-0.7,3.3-1.2,5c-0.1,0.4-0.7,0.7-1.1,1c-0.1-0.4-0.3-0.8-0.3-1.2c0.9-4.2,1.8-8.4,2.7-12.6c0.2-0.7,0.4-1.4,0.4-2.1
		C7.8,16.8,7.6,16.3,7.4,15.7z"/>
	<path class="st0" d="M166.4,17.2c0,1.8-1.4,3.4-3,3.4c-1.4,0-2.5-1.2-2.5-2.6c0-1.8,1.5-3.4,3.1-3.4
		C165.5,14.6,166.4,15.6,166.4,17.2z"/>
	<path class="st0" d="M18.6,31c-0.7,0.7-1.2,1.5-2,2c-1.3,0.8-3,0.1-3.4-1.3c-0.7-2.6,1.2-7.7,4.1-8.6c1.3-0.4,2.5,0.3,2.5,1.7
		c0,1.4-1,2.3-2,3c-0.5,0.4-1.1,0.7-1.6,0.9c-1.5,0.6-1.9,1.3-1.5,2.8c0.3,1.1,1.2,1.5,2.1,0.7c0.5-0.4,0.9-1,1.3-1.5
		C18.3,30.8,18.5,30.9,18.6,31z M15.3,28.4c1.8-0.7,3.1-1.9,3.4-3.7c0.1-0.4-0.1-0.9-0.4-1.2c-0.1-0.1-0.7-0.1-1,0.1
		C16.3,24.2,15.1,26.9,15.3,28.4z"/>
	<path class="st0" d="M3.9,20c0.5,1.2-1.5,2.7,1.1,3.7c-1.6-0.2-1.8,0.5-2,1.5c-0.4,1.8-0.9,3.7-1.2,5.5c-0.1,0.6-0.1,1.2-0.1,2.2
		c0.7-0.6,1.1-0.9,1.5-1.1c-0.1,1-1.1,1.9-2.1,1.7C-0.1,33,0,32.1,0.2,31.2c0.5-2.1,1-4.2,1.4-6.3c0.1-0.3,0-0.7,0-1.1
		c-0.4-0.1-0.7-0.1-1.1-0.2c1.9,0,1.7-1.6,1.9-2.6C2.7,19.8,3.1,19.7,3.9,20z"/>
</g>
</svg>
