<?xml version="1.0" encoding="utf-8"?>
<!-- Generator: Adobe Illustrator 19.2.1, SVG Export Plug-In . SVG Version: 6.00 Build 0)  -->
<svg version="1.1" id="Layer_1" xmlns="http://www.w3.org/2000/svg" xmlns:xlink="http://www.w3.org/1999/xlink" x="0px" y="0px"
	 viewBox="0 0 144.8 80.8" style="enable-background:new 0 0 144.8 80.8;" xml:space="preserve">
<style type="text/css">
	.st0{fill:#0B0E0F;}
</style>
<path class="st0" d="M133.5,63.9c0,3.1-2.5,5.6-5.6,5.6h-5.6V11.2h5.6c3.1,0,5.6,2.5,5.6,5.6V63.9z M127.9,0h-15.9c-0.6,0-1,0.5-1,1
	v78.7c0,0.6,0.5,1,1,1h15.9c9.3,0,16.9-7.6,16.9-16.9v-47C144.8,7.6,137.2,0,127.9,0z M96.5,63.9c0,3.1-2.5,5.6-5.6,5.6
	s-5.7-2.5-5.7-5.6v-47c0-3.1,2.5-5.6,5.7-5.6s5.6,2.5,5.6,5.6V63.9z M90.9,0c-9.3,0-16.9,7.6-16.9,16.9v47c0,9.3,7.6,16.9,16.9,16.9
	c9.3,0,16.9-7.6,16.9-16.9v-47C107.8,7.6,100.2,0,90.9,0z M16.9,0C7.6,0,0,7.6,0,16.9v47c0,9.3,7.6,16.9,16.9,16.9
	c4,0,7.6-1.4,10.5-3.7l1.3,3.7h4.1c0.6,0,1-0.5,1-1v-46c0-0.6-0.5-1-1-1H17.5c-0.6,0-1,0.5-1,1v9.2c0,0.6,0.5,1,1,1h5.1v19.9
	c0,3.1-2.5,5.6-5.6,5.6c-3.1,0-5.6-2.5-5.6-5.6v-47c0-3.1,2.5-5.6,5.6-5.6c3.1,0,5.6,2.5,5.6,5.6v3.6c0,0.6,0.5,1,1,1h9.2
	c0.6,0,1-0.5,1-1v-3.6C33.9,7.6,26.3,0,16.9,0z M59.6,63.9c0,3.1-2.5,5.6-5.6,5.6c-3.1,0-5.6-2.5-5.6-5.6v-47c0-3.1,2.5-5.6,5.6-5.6
	c3.1,0,5.6,2.5,5.6,5.6V63.9z M53.9,0C44.6,0,37,7.6,37,16.9v47c0,9.3,7.6,16.9,16.9,16.9c9.3,0,16.9-7.6,16.9-16.9v-47
	C70.9,7.6,63.3,0,53.9,0z"/>
</svg>
