<?xml version="1.0" encoding="utf-8"?>
<!-- Generator: Adobe Illustrator 19.2.1, SVG Export Plug-In . SVG Version: 6.00 Build 0)  -->
<svg version="1.1" id="Layer_1" xmlns="http://www.w3.org/2000/svg" xmlns:xlink="http://www.w3.org/1999/xlink" x="0px" y="0px"
	 viewBox="0 0 150.2 55.6" style="enable-background:new 0 0 150.2 55.6;" xml:space="preserve">
<style type="text/css">
	.st0{fill:#010101;}
</style>
<g>
	<path class="st0" d="M93.3,1.3C90.2,0.4,86.4,0,81.8,0H56.1v2.2h6.3v51.2h-3.2h-3.1h-2.6l-23-33L47.1,2.2H53V0H36.5v2.2h7.1
		L20.1,27.8l18.2,25.6h-6v2.2h23.9h3.1h22.6v-2.2h-6.4V29.3h5.4c15.3,0,22.9-5.1,22.9-15.2c0-3.3-1.1-6.2-3.2-8.6
		C98.8,3.5,96.3,2.1,93.3,1.3z M87.7,24.5c-1.5,1.7-4.3,2.6-8.4,2.6h-3.8v-25h3.8c4.2,0,7,0.7,8.4,2.1c1.5,1.6,2.2,4.9,2.2,9.8
		C89.9,19.3,89.2,22.8,87.7,24.5z M19.3,2.2h6.4V0H0v2.2h6.3v51.2H0v2.2h25.7v-2.2h-6.4V2.2z M149.1,0h-42.7v2.2h6.3v51.2h-6.3v2.2
		h25.7v-2.2h-6.4V28.5h4.2c3.6,0,6.1,0.8,7.3,2.5c1.1,1.5,1.7,4.3,1.7,8.5h1.8V16.1h-1.8c0,3.9-0.6,6.5-1.7,7.9
		c-1.2,1.6-3.7,2.4-7.3,2.4h-4.2V2.2h5.3c6,0,10.3,1.4,12.9,4.2c1.6,1.7,3.2,5,4.5,9.9h1.8L149.1,0z"/>
</g>
</svg>
