<?xml version="1.0" encoding="utf-8"?>
<!-- Generator: Adobe Illustrator 19.2.1, SVG Export Plug-In . SVG Version: 6.00 Build 0)  -->
<svg version="1.1" id="Layer_1" xmlns="http://www.w3.org/2000/svg" xmlns:xlink="http://www.w3.org/1999/xlink" x="0px" y="0px"
	 viewBox="0 0 182.7 45.8" style="enable-background:new 0 0 182.7 45.8;" xml:space="preserve">
<style type="text/css">
	.st0{fill:#010101;}
</style>
<path class="st0" d="M182.7,44.9L168.5,0h-13.7l-14,44.9H151l2.6-9h13.6l2.6,9H182.7L182.7,44.9z M137.7,44.9V0h-17.9l-6.6,22.7
	L106.4,0H88.5v44.9h10V13l9.8,31.9h7.5l9.8-31.9v31.9L137.7,44.9L137.7,44.9z M49.2,44.9V0H31.4l-6.6,22.7L17.9,0H0v44.9h10V13
	l9.8,31.9h7.5L37,13v31.9L49.2,44.9L49.2,44.9z M84.7,29.2c0-9.7-6.1-16.6-15.9-16.6c-10.4,0-15.8,7.8-15.8,16.6
	c0,10,6.5,16.6,15.8,16.6C78.2,45.8,84.7,39.3,84.7,29.2L84.7,29.2z M164.6,26.6h-8.5l4.2-14.3L164.6,26.6L164.6,26.6z M73.4,29.3
	c0,5.7-0.7,9.3-4.5,9.3c-3.8,0-4.5-3.7-4.5-9.3c0-5.6,0.6-9.4,4.5-9.4C72.7,19.9,73.4,23.7,73.4,29.3L73.4,29.3z"/>
</svg>
