<?xml version="1.0" encoding="utf-8"?>
<!-- Generator: Adobe Illustrator 19.2.1, SVG Export Plug-In . SVG Version: 6.00 Build 0)  -->
<svg version="1.1" id="Layer_1" xmlns="http://www.w3.org/2000/svg" xmlns:xlink="http://www.w3.org/1999/xlink" x="0px" y="0px"
	 viewBox="0 0 173.9 58" style="enable-background:new 0 0 173.9 58;" xml:space="preserve">
<style type="text/css">
	.st0{fill:#010101;}
</style>
<g>
	<polygon class="st0" points="163,0 126.8,0 115.9,10.9 115.9,47.1 126.8,58 163,58 173.9,47.1 173.9,36.2 170.2,32.6 152.1,32.6 
		152.1,36.2 137.6,36.2 137.6,21.7 152.1,21.7 152.1,25.3 170.2,25.3 173.9,21.7 173.9,10.9 	"/>
	<polygon class="st0" points="54.3,0 39.8,0 36.2,3.6 36.2,18.1 18.1,0 3.6,0 0,3.6 0,54.3 3.6,58 18.1,58 21.7,54.3 21.7,39.8 
		39.8,58 54.3,58 58,54.3 58,3.6 	"/>
	<polygon class="st0" points="79.7,58 94.2,58 97.8,54.3 97.8,43.5 115.9,25.4 115.9,3.6 112.3,0 97.8,0 94.2,3.6 94.2,10.9 
		86.9,18.1 79.7,10.9 79.7,3.6 76.1,0 61.6,0 58,3.6 58,25.4 76.1,43.5 76.1,54.3 	"/>
	<path class="st0" d="M169,3.1h-0.6V0.5h-1V0h2.6v0.5h-1V3.1z M173.9,3.1h-0.6V0.6l-0.9,2.5H172l-0.9-2.5v2.5h-0.6V0h0.9l0.8,2.2
		L173,0h0.9V3.1"/>
</g>
</svg>
