<?xml version="1.0" encoding="utf-8"?>
<!-- Generator: Adobe Illustrator 19.2.1, SVG Export Plug-In . SVG Version: 6.00 Build 0)  -->
<svg version="1.1" id="Layer_1" xmlns="http://www.w3.org/2000/svg" xmlns:xlink="http://www.w3.org/1999/xlink" x="0px" y="0px"
	 viewBox="0 0 176.7 62.6" style="enable-background:new 0 0 176.7 62.6;" xml:space="preserve">
<style type="text/css">
	.st0{fill:#010101;}
</style>
<path class="st0" d="M173.1,41.2c-3.5,1.5-9.6,5.2-23.5,5.2c-2.5,0-4.6-0.4-6.2-1c5.2-3.9,9-8.2,9-12.1c0-5.6-5.5-8.3-9.8-8.3
	c-5.3,0-12.5,5.3-12.5,13.7c0,3.3,1.2,6.2,3.3,8.5c-1.5,1-5.1,3.2-8.3,2.7c-4.1-0.7-4.5-6.7-4.1-9.8c0.6-4.7-1.1-7.2-3.8-7.9
	c-4.9-1.3-5.2-6.2-8.6-6.9c-4.8-1-7.5,6.7-1.9,8c1.2,0.3,1.6,0.4,1.9,1.3c0.5,1.4-2,11.2-4.8,11.2c-4.9,0-6.1-10.9-13.5-11.8
	c-7.3-0.9-14.1,11.4-14.1,11.4c-2-19.4,1.2-26.5,3.3-33C81.9,5.9,81.3,0.2,76.6,0c-4.1-0.1-7.9,10.4-8.2,18.7
	c-0.1,2.5-0.1,7.4,0.1,13.1c-2.4,4.9-9.9,18.2-19.7,17.7c-8.6-0.5-6.1-16.7-2.8-17c2.6-0.2,0.9,6.6,7,6.6c0.4,0,3.6-0.7,4.1-4.3
	c0.5-3.6-3-6.8-6.7-6.7c0,0,0,0,0,0c-8.8-0.4-15.5,9.6-19.6,9c-5-0.7-7-10-15.4-11.2c-0.1,0-0.2,0-0.2,0c0,0,0,0,0,0l0,0
	c-0.1,0-0.2,0-0.3,0c-4.5-0.5-13.1,2.2-14.6,12.2c-1.5,10,5.3,15.4,10.9,16c5.6,0.6,12.7-2.3,14.6-12.4c0.1-0.7,0.2-1.5,0.3-2.1
	c1.5,0.7,3.1,1.2,4.5,1.3c1.4,0.1,2.8-0.2,4-0.6c-0.1,0.5-0.2,1-0.3,1.5c-1.6,9.9,6,15.9,13.6,15.1c7.8-0.8,16.3-8.9,21-18.9
	c0.6,12,2,24.9,5,24.9c5,0,8.8-24.9,16.1-23.8c7.3,1,6.5,17.5,12.1,18.5c5,0.8,11.7-15.3,12.1-17.2c0.4-1.9,1.3-1.2,1.3-1.2
	s-1.6,16,8.7,16c4.2,0,9.5-3.1,12.5-5l0,0c0,0,0,0,0,0c3.1,1.9,7.1,3,11.6,3c11.4,0,23.4-5.5,26.7-7.7
	C178.4,42.8,176.2,39.9,173.1,41.2z M17.5,40.8c-0.7,4.7-2.8,9.3-5.8,8.9c-3-0.4-4-5.7-3.4-10.2c0.6-4.5,3-10.2,6.2-9.7
	C17.7,30.2,18.2,36.1,17.5,40.8z M142.8,29.1c3.8-0.6,1.8,6.7-3.5,12.9C136.2,37,139.6,29.6,142.8,29.1z"/>
</svg>
