<?xml version="1.0" encoding="utf-8"?>
<!-- Generator: Adobe Illustrator 19.2.1, SVG Export Plug-In . SVG Version: 6.00 Build 0)  -->
<svg version="1.1" id="Layer_1" xmlns="http://www.w3.org/2000/svg" xmlns:xlink="http://www.w3.org/1999/xlink" x="0px" y="0px"
	 viewBox="0 0 168.1 72.8" style="enable-background:new 0 0 168.1 72.8;" xml:space="preserve">
<style type="text/css">
	.st0{fill:#010101;}
</style>
<g>
	<path class="st0" d="M50,27.2c-0.4-6.7-3.8-11.5-6-13.9c-1.5-1.6-2.9-3.3-4.7-5.1c-3.5-3.5-6.8-6.4-8.1-7.5c-1.7-1.3-4.3-1-4.3,1.7
		v70.1H32V51.4c4.6-1.1,9-3.6,12.2-7.2C48.3,39.6,50.3,33.4,50,27.2z M32,7.8c2.9,2.9,5.3,5.3,8,8.3c0.7,0.7,1.1,1.2,1.6,1.9
		c-1,1-9.6,9.6-9.6,9.6V7.8z M32,46.3V34.4l11.9-12c0.7,1.9,1.2,4.4,1.1,6.6C44.9,37.3,39.4,44.3,32,46.3z M18.9,0.8
		c-1.3,1.1-4.5,4-8,7.5c-1.8,1.8-3.4,3.5-4.7,5.1C3.9,15.7,0.4,20.6,0,27.2c-0.2,6.2,1.7,12.4,5.8,17c3.3,3.5,7.5,6.1,12.2,7.2v21.1
		h5.1V2.5C23.1-0.2,20.6-0.6,18.9,0.8z M18,46.3c-7.4-2.1-12.8-9-13-17.4c0-2.2,0.5-4.6,1.2-6.6l11.8,12V46.3z M18,27.6
		c0,0-8.6-8.6-9.6-9.6c0.6-0.7,1-1.2,1.7-1.9c2.7-2.9,5-5.3,7.9-8.3V27.6z M65.9,12.2h4.6c4.7,0,7.4-2.3,7.4-6
		c0-3.5-2.7-5.8-7.4-5.8h-6.6v19.3h1.9V12.2z M65.9,2h4.6C74.1,2,76,3.5,76,6.2c0,2.8-1.8,4.3-5.5,4.3h-4.6V2z M81.7,12.4
		c0-2.7,1.6-4.6,3.4-4.6c0.9,0,1.3,0.1,2.1,0.5l0.2-1.7C86.9,6.2,86.3,6,85.4,6c-1.9,0-3.3,1.7-3.8,3.2V6.3h-1.9v13.4h1.9V12.4z
		 M94.7,20.1c3.8,0,6.6-2.9,6.6-7s-2.8-7-6.6-7S88,8.9,88,13S90.9,20.1,94.7,20.1z M94.7,7.4c2.9,0,4.6,2.3,4.6,5.6
		s-1.7,5.6-4.6,5.6c-3,0-4.7-2.3-4.7-5.6S91.6,7.4,94.7,7.4z M109,18.6c-2.6,0-4.1-1.3-4.4-3.6l-1.5,0.2c0.1,3.2,2.7,4.9,5.8,4.9
		c2.9,0,5.2-1.5,5.2-4c0-2.3-1.6-3.3-4.1-3.8l-2.4-0.4c-1.7-0.2-2.4-0.9-2.4-2.2s1.2-2.3,3.2-2.3c2.4,0,3.9,1.1,4.1,3.5l1.5-0.1
		c-0.1-3.2-2.2-4.9-5.6-4.9c-2.9,0-4.9,1.6-4.9,4c0,2.1,1.5,3.2,3.8,3.6l2.3,0.4c1.8,0.4,2.8,0.7,2.8,2.2
		C112.4,17.8,111.1,18.6,109,18.6z M129.7,13c0-3.9-2.3-7-6.2-7c-2.6,0-4.3,1.7-4.9,3.4v-3h-1.9v18.5h1.9v-8
		c0.6,1.6,2.3,3.3,4.9,3.3C127.4,20.1,129.7,16.9,129.7,13z M123.2,18.5c-2.7,0-4.7-1.8-4.7-5v-1c0-3.2,2.1-5,4.7-5
		c2.8,0,4.4,2.1,4.4,5.5S126,18.5,123.2,18.5z M144.2,15.1l-1.6-0.1c-0.5,2.3-2.1,3.5-4.5,3.5c-2.6,0-4.6-2.1-4.7-5h10.9v-0.9
		c0-3.6-2.1-6.7-6.3-6.7c-3.8,0-6.6,3-6.6,7.2s2.9,6.9,6.7,6.9C141.4,20.1,143.6,18.1,144.2,15.1z M138,7.4c2.8,0,4.3,2.3,4.3,4.7
		h-8.9C133.8,9.7,135.5,7.4,138,7.4z M165.5,18.5c-1.2,0-1.7-0.6-1.7-1.7v-9h3.8V6.3h-3.8V2.7h-1l-0.4,1.9c-0.4,1.2-0.6,1.8-1.8,2.1
		l-0.7,0.1v1h2.1v8.9c0,2.4,1.1,3.4,2.8,3.4c1.5,0,2.3-0.4,3.3-1.1v-1.3C167.3,18,166.4,18.5,165.5,18.5z M157.4,15
		c-0.5,2.1-1.9,3.5-4.4,3.5c-2.8,0-4.7-2.2-4.7-5.5s1.9-5.5,4.7-5.5c2.4,0,3.9,1.5,4.4,3.5l0,0l0,0l1.7-0.2
		c-0.6-2.8-2.7-4.7-6.1-4.7c-3.9,0-6.7,2.8-6.7,6.9c0,4.3,2.8,7,6.7,7c3.5,0,5.5-2.2,6.1-5L157.4,15z M65.9,38.5h4.6
		c4.7,0,7.4-2.2,7.4-5.8s-2.7-5.8-7.4-5.8h-6.6v19.2h1.9V38.5z M65.9,28.5h4.6c3.6,0,5.5,1.5,5.5,4.3c0,2.7-1.8,4.3-5.5,4.3h-4.6
		V28.5z M91.8,45.6v-1.1c-0.4,0.2-0.9,0.4-1.2,0.4c-0.6,0-1.1-0.4-1.1-1v-6.4c0-3.3-1.7-5-5.1-5c-2.8,0-4.7,1.7-5.3,4.1l1.6,0.2
		c0.5-1.7,1.7-2.9,3.9-2.9c2.1,0,3.3,1.2,3.3,3.3v0.6l-3.6,0.7c-3.3,0.7-5.5,1.7-5.5,4.3c0,2.3,1.7,3.6,4.1,3.6c2.3,0,4.3-1.3,5-2.9
		c0,1.7,1,2.8,2.3,2.8C90.9,46.3,91.4,46,91.8,45.6z M87.7,40c0,3-2.1,5-4.6,5c-1.8,0-2.6-1-2.6-2.3c0-1.7,1.5-2.2,3.9-2.8l3.3-0.6
		V40z M95.5,38.8c0-2.7,1.6-4.6,3.5-4.6c0.7,0,1.3,0.1,2.2,0.6l0.2-1.7c-0.6-0.4-1.3-0.6-2.1-0.6c-2.1,0-3.4,1.6-3.9,3.2v-2.8h-1.8
		v13.2h1.8V38.8z M105,41.1l2.1-1.7l5.7,6.7h2.2l-6.6-7.8l6.3-5.5h-2.4l-7.3,6.4V26.9h-1.9v19.2h1.9V41.1z M68.4,53.2l-8,19.2h1.9
		l2.4-6.2h9.1l2.7,6.2h2.1l-8.1-19.2H68.4z M65.5,64.7l3.8-9.4h0.1l3.9,9.4H65.5z M80.5,72.4h1.9V53.2h-1.9V72.4z M85.7,72.4h1.9
		V53.2h-1.9V72.4z M106.1,70.3v-6.3c0-3.3-1.7-5.1-5-5.1c-2.9,0-4.9,1.8-5.3,4.1l1.6,0.4c0.5-1.7,1.6-3,3.8-3c2.1,0,3.3,1.3,3.3,3.3
		v0.7l-3.5,0.7c-3.3,0.6-5.6,1.7-5.6,4.1c0,2.3,1.7,3.6,4.1,3.6c2.3,0,4.3-1.3,5-2.8c0,1.6,1,2.8,2.3,2.8c1,0,1.3-0.4,1.7-0.9v-1
		c-0.4,0.2-0.9,0.4-1.1,0.4C106.6,71.3,106.1,71,106.1,70.3z M104.4,66.5c0,2.9-1.9,5-4.6,5c-1.7,0-2.6-1.1-2.6-2.3
		c0-1.8,1.5-2.3,3.9-2.8l3.3-0.7V66.5z M116.3,58.8c-1.9,0-3.8,1.2-4.4,2.8v-2.4H110v13.2h1.9v-7.9c0-2.6,1.8-4.3,3.9-4.3
		c2.3,0,3.5,1.6,3.5,3.9v8.3h1.8v-8.1C121.2,61.1,119.8,58.8,116.3,58.8z M144.9,58.8c-3.8,0-6.6,3-6.6,7.2s2.8,6.8,6.7,6.8
		c3.3,0,5.5-1.8,6.1-4.9l-1.6-0.2c-0.5,2.4-2.1,3.6-4.5,3.6c-2.7,0-4.6-2.1-4.7-5H151v-0.9C151,61.9,149,58.8,144.9,58.8z M140.2,65
		c0.2-2.4,1.9-4.7,4.6-4.7c2.8,0,4.3,2.3,4.3,4.7H140.2z M91,72.4h1.8V59.2H91V72.4z M91.9,53.1c-0.6,0-1.2,0.6-1.2,1.3
		c0,0.9,0.6,1.3,1.2,1.3c0.7,0,1.3-0.5,1.3-1.3C93.2,53.7,92.6,53.1,91.9,53.1z M134.6,67.7c-0.5,2.1-1.9,3.6-4.4,3.6
		c-2.8,0-4.7-2.2-4.7-5.5c0-3.3,1.9-5.5,4.7-5.5c2.3,0,3.9,1.5,4.3,3.4h0.1l0,0l1.6-0.2c-0.5-2.7-2.6-4.7-6-4.7
		c-3.9,0-6.7,2.8-6.7,7c0,4.3,2.8,6.9,6.7,6.9c3.5,0,5.5-2.1,6.1-4.9L134.6,67.7z"/>
</g>
</svg>
