<?xml version="1.0" standalone="no"?>
<!DOCTYPE svg PUBLIC "-//W3C//DTD SVG 20010904//EN"
 "http://www.w3.org/TR/2001/REC-SVG-20010904/DTD/svg10.dtd">
<svg version="1.0" xmlns="http://www.w3.org/2000/svg"
 width="320.000000pt" height="320.000000pt" viewBox="0 0 320.000000 320.000000"
 preserveAspectRatio="xMidYMid meet">
<metadata>
Created by potrace 1.11, written by Peter Selinger 2001-2013
</metadata>
<g transform="translate(0.000000,320.000000) scale(0.100000,-0.100000)"
fill="#000000" stroke="none">
<path d="M1455 3136 c-215 -49 -398 -213 -470 -423 -13 -37 -26 -90 -30 -117
-3 -27 -6 -482 -6 -1010 0 -1015 -1 -999 45 -1125 62 -169 232 -327 413 -384
54 -17 93 -22 193 -22 145 0 219 19 333 87 38 22 70 38 71 36 1 -1 8 -18 14
-36 7 -17 17 -46 23 -62 l11 -30 88 0 c64 0 91 4 99 14 17 20 18 1803 2 1819
-14 14 -616 18 -643 5 -16 -8 -18 -28 -18 -207 0 -147 3 -201 13 -209 6 -5 55
-10 107 -10 52 0 100 -1 105 -1 7 -1 10 -140 10 -408 -1 -398 -2 -409 -23
-450 -83 -159 -301 -158 -385 2 -21 40 -21 45 -22 989 0 897 1 952 18 990 25
56 53 85 111 112 105 49 226 3 281 -106 14 -26 19 -61 20 -139 1 -81 5 -106
17 -115 21 -15 393 -15 408 0 16 16 13 232 -4 308 -57 243 -246 434 -485 489
-79 18 -220 19 -296 3z"/>
</g>
</svg>
