<?xml version="1.0" encoding="utf-8"?>
<!-- Generator: Adobe Illustrator 19.2.1, SVG Export Plug-In . SVG Version: 6.00 Build 0)  -->
<svg version="1.1" id="Layer_1" xmlns="http://www.w3.org/2000/svg" xmlns:xlink="http://www.w3.org/1999/xlink" x="0px" y="0px"
	 viewBox="0 0 594.4 594.4" style="enable-background:new 0 0 594.4 594.4;" xml:space="preserve">
<style type="text/css">
	.st0{opacity:0.6;fill:none;stroke:#F05326;stroke-miterlimit:10;}
	.st1{opacity:0.2;fill:none;stroke:#F05326;stroke-miterlimit:10;}
	.st2{opacity:0.4;fill:none;stroke:#F05326;stroke-miterlimit:10;}
	.st3{opacity:0.6;fill:#F05326;}
	.st4{font-family:'ProximaNova-Extrabld';}
	.st5{font-size:12px;}
	.st6{letter-spacing:1;}
	.st7{opacity:0.4;}
	.st8{fill:#F05326;}
	.st9{opacity:0.2;}
</style>
<ellipse transform="matrix(0.7071 -0.7071 0.7071 0.7071 -62.1383 232.9351)" class="st0" cx="250.1" cy="191.5" rx="191" ry="191"/>
<ellipse transform="matrix(0.7071 -0.7071 0.7071 0.7071 -125.4355 385.7481)" class="st1" cx="402.9" cy="344.3" rx="191" ry="191"/>
<ellipse transform="matrix(0.7071 -0.7071 0.7071 0.7071 -228.8267 253.4063)" class="st2" cx="191.5" cy="402.9" rx="191" ry="191"/>
<text transform="matrix(1 0 0 1 211.6847 191.4746)" class="st3 st4 st5 st6">Brand DNA</text>
<text transform="matrix(1 0 0 1 154.3537 380.3418)" class="st7"><tspan x="0" y="0" class="st8 st4 st5 st6">What gets </tspan><tspan x="13.2" y="20.6" class="st8 st4 st5 st6">people </tspan><tspan x="6.3" y="41.2" class="st8 st4 st5 st6">engaged</tspan></text>
<text transform="matrix(1 0 0 1 370.0959 336.7617)" class="st9"><tspan x="0" y="0" class="st8 st4 st5 st6">Society’s </tspan><tspan x="12.3" y="22.5" class="st8 st4 st5 st6">Needs</tspan></text>
</svg>
