<?xml version="1.0" encoding="utf-8"?>
<!-- Generator: Adobe Illustrator 19.2.1, SVG Export Plug-In . SVG Version: 6.00 Build 0)  -->
<svg version="1.1" id="Layer_1" xmlns="http://www.w3.org/2000/svg" xmlns:xlink="http://www.w3.org/1999/xlink" x="0px" y="0px"
	 viewBox="0 0 24 24" style="enable-background:new 0 0 24 24;" xml:space="preserve">
<style type="text/css">
	.st0{display:none;}
</style>
<g id="Layer_3" class="st0">
	
		<image style="display:inline;overflow:visible;enable-background:new    ;" width="103" height="118" xlink:href="../../../../../../Desktop/Screen Shot 2016-04-30 at 1.09.30 PM.png"  transform="matrix(1.1037 0 0 1.1037 -42.1667 -56.4013)">
	</image>
</g>
<g id="Layer_2">
	<path d="M2.2,12.7l9.4,8.2c0.2,0.2,0.4,0.3,0.6,0.3c0.2,0,0.4-0.1,0.6-0.3l0.5-0.5c0.2-0.2,0.3-0.4,0.3-0.6s-0.1-0.4-0.3-0.5
		l-7-6.1h15c0.2,0,0.4-0.1,0.5-0.3s0.2-0.4,0.2-0.6v-0.6c0-0.2-0.1-0.4-0.2-0.5c-0.1-0.2-0.3-0.3-0.5-0.3l-15-0.1l7-5.9
		c0.2-0.2,0.3-0.4,0.3-0.6c0-0.2-0.1-0.4-0.3-0.6l-0.5-0.5C12.6,3.1,12.4,3,12.2,3s-0.4,0.1-0.6,0.2l-9.4,8.2C2.1,11.6,2,11.8,2,12
		S2.1,12.4,2.2,12.7z"/>
</g>
</svg>
