<?xml version="1.0" encoding="utf-8"?>
<!-- Generator: Adobe Illustrator 19.2.1, SVG Export Plug-In . SVG Version: 6.00 Build 0)  -->
<svg version="1.1" id="Layer_1" xmlns="http://www.w3.org/2000/svg" xmlns:xlink="http://www.w3.org/1999/xlink" x="0px" y="0px"
	 viewBox="0 0 24 24" style="enable-background:new 0 0 24 24;" xml:space="preserve">
<style type="text/css">
	.st0{fill:#010101;}
</style>
<path class="st0" d="M20.8,12c0-0.4-0.1-0.8-0.4-1.1l-7.8-7.8c-0.3-0.3-0.7-0.4-1.1-0.4c-0.4,0-0.8,0.1-1.1,0.4L9.5,4
	C9.2,4.3,9,4.7,9,5.1c0,0.4,0.2,0.8,0.5,1.1L13,9.7H4.6c-0.4,0-0.8,0.2-1,0.5s-0.4,0.7-0.4,1.1v1.5c0,0.4,0.1,0.8,0.4,1.1
	s0.6,0.5,1,0.5H13l-3.5,3.5C9.2,18.1,9,18.5,9,18.9c0,0.4,0.2,0.8,0.5,1.1l0.9,0.9c0.3,0.3,0.7,0.5,1.1,0.5c0.4,0,0.8-0.2,1.1-0.5
	l7.8-7.8C20.7,12.8,20.8,12.4,20.8,12z"/>
</svg>
