<?xml version="1.0" encoding="utf-8"?>
<!-- Generator: Adobe Illustrator 19.2.1, SVG Export Plug-In . SVG Version: 6.00 Build 0)  -->
<svg version="1.1" xmlns="http://www.w3.org/2000/svg" xmlns:xlink="http://www.w3.org/1999/xlink" x="0px" y="0px"
	 viewBox="0 0 24 24" style="enable-background:new 0 0 24 24;" xml:space="preserve">
<style type="text/css">
	.st0{display:none;}
</style>
<g id="Layer_3" class="st0">
	
		<image style="display:inline;overflow:visible;" width="103" height="118" xlink:href="../../../../../../Desktop/Screen Shot 2016-04-30 at 1.09.30 PM.png"  transform="matrix(1.1037 0 0 1.1037 -42.1667 -56.4013)">
	</image>
</g>
<g id="Layer_2">
	<path d="M22,12c0-0.2-0.1-0.4-0.2-0.6l-9.4-8.2C12.2,3.1,12,3,11.8,3c-0.2,0-0.4,0.1-0.6,0.2l-0.5,0.5c-0.2,0.2-0.3,0.4-0.3,0.6
		c0,0.2,0.1,0.4,0.3,0.6l7,5.9l-15,0.1c-0.2,0-0.4,0.1-0.5,0.3C2.1,11.3,2,11.5,2,11.7v0.6c0,0.2,0.1,0.4,0.2,0.6s0.3,0.3,0.5,0.3
		h15l-7,6.1c-0.2,0.1-0.3,0.3-0.3,0.5s0.1,0.4,0.3,0.6l0.5,0.5c0.2,0.2,0.4,0.3,0.6,0.3c0.2,0,0.4-0.1,0.6-0.3l9.4-8.2
		C21.9,12.4,22,12.2,22,12z"/>
</g>
</svg>
