<?xml version="1.0" encoding="utf-8"?>
<!-- Generator: Adobe Illustrator 19.2.1, SVG Export Plug-In . SVG Version: 6.00 Build 0)  -->
<svg version="1.1" id="Layer_1" xmlns="http://www.w3.org/2000/svg" xmlns:xlink="http://www.w3.org/1999/xlink" x="0px" y="0px"
	 viewBox="0 0 24 24" style="enable-background:new 0 0 24 24;" xml:space="preserve">
<style type="text/css">
	.st0{fill:#010101;}
</style>
<path class="st0" d="M19.1,7.7c0-0.3-0.1-0.6-0.3-0.8l-1.6-1.6c-0.2-0.2-0.5-0.3-0.8-0.3S15.7,5,15.5,5.3L12,8.8L8.4,5.3
	C8.2,5,7.9,4.9,7.6,4.9S7,5,6.8,5.3L5.1,6.9C4.9,7.1,4.8,7.4,4.8,7.7c0,0.3,0.1,0.6,0.3,0.8l3.5,3.5l-3.5,3.5
	c-0.2,0.2-0.3,0.5-0.3,0.8c0,0.3,0.1,0.6,0.3,0.8l1.6,1.6c0.2,0.2,0.5,0.3,0.8,0.3s0.6-0.1,0.8-0.3l3.5-3.5l3.5,3.5
	c0.2,0.2,0.5,0.3,0.8,0.3s0.6-0.1,0.8-0.3l1.6-1.6c0.2-0.2,0.3-0.5,0.3-0.8c0-0.3-0.1-0.6-0.3-0.8l-3.5-3.5l3.5-3.5
	C19,8.3,19.1,8,19.1,7.7z"/>
</svg>
