<?xml version="1.0" encoding="utf-8"?>
<!-- Generator: Adobe Illustrator 19.2.1, SVG Export Plug-In . SVG Version: 6.00 Build 0)  -->
<svg version="1.1" id="Layer_1" xmlns="http://www.w3.org/2000/svg" xmlns:xlink="http://www.w3.org/1999/xlink" x="0px" y="0px"
	 viewBox="0 0 24 24" style="enable-background:new 0 0 24 24;" xml:space="preserve">
<style type="text/css">
	.st0{fill:#010101;}
</style>
<path class="st0" d="M16.9,9c0-0.2-0.1-0.4-0.2-0.6l-1.1-1.1c-0.1-0.1-0.3-0.2-0.6-0.2c-0.2,0-0.5,0-0.6,0.2L12,9.8L9.5,7.3
	C9.4,7.1,9.1,7.1,8.9,7.1c-0.2,0-0.4,0.1-0.6,0.3L7.2,8.5C7.1,8.6,7,8.8,7,9s0.1,0.4,0.2,0.6L9.6,12l-2.4,2.4C7.1,14.5,7,14.8,7,15
	c0,0.2,0.1,0.4,0.2,0.6l1.1,1.1c0.1,0.1,0.3,0.2,0.6,0.2c0.2,0,0.4-0.1,0.6-0.2l2.4-2.4l2.4,2.4c0.1,0.1,0.3,0.2,0.6,0.2
	s0.4-0.1,0.6-0.2l1.1-1.1c0.1-0.1,0.2-0.3,0.2-0.6c0-0.2-0.1-0.4-0.2-0.6L14.1,12l2.4-2.4C16.8,9.4,16.9,9.2,16.9,9z"/>
</svg>
