<?xml version="1.0" encoding="utf-8"?>
<!-- Generator: Adobe Illustrator 19.2.1, SVG Export Plug-In . SVG Version: 6.00 Build 0)  -->
<svg version="1.1" id="Layer_1" xmlns="http://www.w3.org/2000/svg" xmlns:xlink="http://www.w3.org/1999/xlink" x="0px" y="0px"
	 viewBox="0 0 24 24" style="enable-background:new 0 0 24 24;" xml:space="preserve">
<style type="text/css">
	.st0{fill:#010101;}
</style>
<path class="st0" d="M17.9,9.2l-0.6-0.6c-0.1-0.1-0.2-0.1-0.3-0.1s-0.2,0-0.3,0.1L12,13.3L7.3,8.6C7.2,8.5,7.1,8.5,7,8.5
	s-0.2,0-0.3,0.1L6.1,9.2C6,9.3,6,9.4,6,9.5s0,0.2,0.1,0.3l5.6,5.6c0.1,0.1,0.2,0.1,0.3,0.1s0.2,0,0.3-0.1l5.6-5.6
	C18,9.7,18,9.6,18,9.5S18,9.3,17.9,9.2z"/>
</svg>
