<?xml version="1.0" encoding="utf-8"?>
<!-- Generator: Adobe Illustrator 19.2.1, SVG Export Plug-In . SVG Version: 6.00 Build 0)  -->
<svg version="1.1" id="Layer_1" xmlns="http://www.w3.org/2000/svg" xmlns:xlink="http://www.w3.org/1999/xlink" x="0px" y="0px"
	 viewBox="0 0 24 24" style="enable-background:new 0 0 24 24;" xml:space="preserve">
<style type="text/css">
	.st0{fill:#010101;}
</style>
<path class="st0" d="M22,19.4c0,1.4-1.2,2.6-2.6,2.6H4.6C3.2,22,2,20.8,2,19.4V4.6C2,3.2,3.2,2,4.6,2h14.9C20.8,2,22,3.2,22,4.6
	V19.4z M19.7,10.5H18c0.2,0.5,0.3,1.1,0.3,1.7c0,3.3-2.8,6-6.2,6c-3.4,0-6.2-2.7-6.2-6c0-0.6,0.1-1.2,0.3-1.7H4.2v8.4
	c0,0.4,0.4,0.8,0.8,0.8h13.9c0.4,0,0.8-0.4,0.8-0.8V10.5z M12,8.1c-2.2,0-4,1.7-4,3.9c0,2.1,1.8,3.9,4,3.9c2.2,0,4-1.7,4-3.9
	C16,9.8,14.2,8.1,12,8.1z M19.7,5.1c0-0.5-0.4-0.9-0.9-0.9h-2.3c-0.5,0-0.9,0.4-0.9,0.9v2.1c0,0.5,0.4,0.9,0.9,0.9h2.3
	c0.5,0,0.9-0.4,0.9-0.9L19.7,5.1L19.7,5.1z"/>
</svg>
