<?xml version="1.0" encoding="utf-8"?>
<!-- Generator: Adobe Illustrator 19.2.1, SVG Export Plug-In . SVG Version: 6.00 Build 0)  -->
<svg version="1.1" id="Layer_1" xmlns="http://www.w3.org/2000/svg" xmlns:xlink="http://www.w3.org/1999/xlink" x="0px" y="0px"
	 viewBox="0 0 24 24" style="enable-background:new 0 0 24 24;" xml:space="preserve">
<style type="text/css">
	.st0{fill:#010101;}
</style>
<path class="st0" d="M14.4,14.4c-0.7,0.7-1.4,1-2.4,1s-1.7-0.3-2.4-1c-0.7-0.7-1-1.4-1-2.4s0.3-1.7,1-2.4c0.7-0.7,1.4-1,2.4-1
	s1.7,0.3,2.4,1c0.7,0.7,1,1.4,1,2.4S15,13.7,14.4,14.4z M15.6,8.4c-1-1-2.2-1.5-3.6-1.5S9.4,7.4,8.4,8.4S6.9,10.6,6.9,12
	s0.5,2.6,1.5,3.6s2.2,1.5,3.6,1.5s2.6-0.5,3.6-1.5s1.5-2.2,1.5-3.6S16.6,9.4,15.6,8.4z M18.2,5.8c-0.2-0.2-0.5-0.4-0.8-0.4
	c-0.3,0-0.6,0.1-0.8,0.4s-0.4,0.5-0.4,0.8s0.1,0.6,0.4,0.8s0.5,0.4,0.8,0.4c0.3,0,0.6-0.1,0.8-0.4s0.4-0.5,0.4-0.8S18.4,6,18.2,5.8z
	 M13,3.8c0.6,0,1.1,0,1.4,0c0.3,0,0.7,0,1.3,0c0.5,0,1,0.1,1.3,0.1c0.4,0.1,0.7,0.1,0.9,0.2C18.3,4.4,18.7,4.6,19,5
	c0.3,0.3,0.6,0.7,0.8,1.1C19.9,6.4,20,6.7,20,7c0.1,0.4,0.1,0.8,0.1,1.3c0,0.5,0,0.9,0,1.3c0,0.3,0,0.8,0,1.4c0,0.6,0,0.9,0,1
	s0,0.4,0,1c0,0.6,0,1.1,0,1.4c0,0.3,0,0.7,0,1.3c0,0.5-0.1,1-0.1,1.3c-0.1,0.4-0.1,0.7-0.2,0.9c-0.2,0.4-0.4,0.8-0.8,1.1
	c-0.3,0.3-0.7,0.6-1.1,0.8C17.6,19.9,17.3,20,17,20c-0.4,0.1-0.8,0.1-1.3,0.1c-0.5,0-0.9,0-1.3,0c-0.3,0-0.8,0-1.4,0
	c-0.6,0-0.9,0-1,0s-0.4,0-1,0c-0.6,0-1.1,0-1.4,0c-0.3,0-0.7,0-1.3,0c-0.5,0-1-0.1-1.3-0.1c-0.4-0.1-0.7-0.1-0.9-0.2
	C5.7,19.6,5.3,19.4,5,19c-0.3-0.3-0.6-0.7-0.8-1.1C4.1,17.6,4,17.3,4,17c-0.1-0.4-0.1-0.8-0.1-1.3c0-0.5,0-0.9,0-1.3
	c0-0.3,0-0.8,0-1.4c0-0.6,0-0.9,0-1s0-0.4,0-1c0-0.6,0-1.1,0-1.4c0-0.3,0-0.7,0-1.3c0-0.5,0.1-1,0.1-1.3C4,6.7,4.1,6.4,4.2,6.1
	C4.4,5.7,4.6,5.3,5,5c0.3-0.3,0.7-0.6,1.1-0.8C6.4,4.1,6.7,4,7,4s0.8-0.1,1.3-0.1c0.5,0,0.9,0,1.3,0c0.3,0,0.8,0,1.4,0
	c0.6,0,0.9,0,1,0S12.4,3.8,13,3.8z M21.9,7.9c-0.1-1.8-0.6-3.2-1.6-4.2s-2.4-1.5-4.2-1.6C15.4,2,14,2,12,2S8.6,2,7.9,2.1
	C6.1,2.2,4.7,2.7,3.7,3.7S2.2,6.1,2.1,7.9C2,8.6,2,10,2,12s0,3.4,0.1,4.1c0.1,1.8,0.6,3.2,1.6,4.2s2.4,1.5,4.2,1.6
	C8.6,22,10,22,12,22s3.4,0,4.1-0.1c1.8-0.1,3.2-0.6,4.2-1.6s1.5-2.4,1.6-4.2C22,15.4,22,14,22,12S22,8.6,21.9,7.9z"/>
</svg>
