<?xml version="1.0" encoding="utf-8"?>
<!-- Generator: Adobe Illustrator 19.2.1, SVG Export Plug-In . SVG Version: 6.00 Build 0)  -->
<svg version="1.1" id="Layer_1" xmlns="http://www.w3.org/2000/svg" xmlns:xlink="http://www.w3.org/1999/xlink" x="0px" y="0px"
	 viewBox="0 0 24 24" style="enable-background:new 0 0 24 24;" xml:space="preserve">
<style type="text/css">
	.st0{fill:#010101;}
</style>
<path class="st0" d="M14.5,6c-0.1,0-0.2,0-0.3,0.1l-5.6,5.6c-0.1,0.1-0.1,0.2-0.1,0.3s0,0.2,0.1,0.3l5.6,5.6
	c0.1,0.1,0.2,0.1,0.3,0.1s0.2,0,0.3-0.1l0.6-0.6c0.1-0.1,0.1-0.2,0.1-0.3s0-0.2-0.1-0.3L10.7,12l4.7-4.7c0.1-0.1,0.1-0.2,0.1-0.3
	s0-0.2-0.1-0.3l-0.6-0.6C14.7,6,14.6,6,14.5,6z"/>
</svg>
