<?xml version="1.0" encoding="utf-8"?>
<!-- Generator: Adobe Illustrator 19.2.1, SVG Export Plug-In . SVG Version: 6.00 Build 0)  -->
<svg version="1.1" id="Layer_1" xmlns="http://www.w3.org/2000/svg" xmlns:xlink="http://www.w3.org/1999/xlink" x="0px" y="0px"
	 viewBox="0 0 24 24" style="enable-background:new 0 0 24 24;" xml:space="preserve">
<style type="text/css">
	.st0{fill:#010101;}
</style>
<path class="st0" d="M3,8.9v11.9h4V8.9H3z M6.6,3.8C6.2,3.4,5.7,3.2,5,3.2S3.8,3.4,3.4,3.8S2.8,4.6,2.8,5.2c0,0.6,0.2,1.1,0.6,1.5
	S4.3,7.3,5,7.3h0c0.7,0,1.2-0.2,1.6-0.6s0.6-0.9,0.6-1.5C7.2,4.6,7,4.1,6.6,3.8z M20,10c-0.8-0.9-1.9-1.4-3.3-1.4
	c-0.5,0-1,0.1-1.4,0.2c-0.4,0.1-0.8,0.3-1,0.5s-0.5,0.4-0.7,0.6s-0.3,0.4-0.5,0.7h0V8.9h-4l0,0.6c0,0.4,0,1.6,0,3.6s0,4.6,0,7.8h4
	v-6.6c0-0.4,0-0.7,0.1-1c0.2-0.4,0.4-0.8,0.8-1c0.3-0.3,0.8-0.4,1.3-0.4c0.7,0,1.2,0.2,1.5,0.7c0.3,0.5,0.5,1.1,0.5,2v6.4h4V14
	C21.2,12.2,20.8,10.9,20,10z"/>
</svg>
