<?xml version="1.0" encoding="utf-8"?>
<!-- Generator: Adobe Illustrator 19.2.1, SVG Export Plug-In . SVG Version: 6.00 Build 0)  -->
<svg version="1.1" id="Layer_1" xmlns="http://www.w3.org/2000/svg" xmlns:xlink="http://www.w3.org/1999/xlink" x="0px" y="0px"
	 viewBox="0 0 24 24" style="enable-background:new 0 0 24 24;" xml:space="preserve">
<style type="text/css">
	.st0{fill:#010101;}
</style>
<path class="st0" d="M9.5,18c0.1,0,0.2,0,0.3-0.1l5.6-5.6c0.1-0.1,0.1-0.2,0.1-0.3s0-0.2-0.1-0.3L9.8,6.1C9.7,6,9.6,6,9.5,6
	S9.3,6,9.2,6.1L8.6,6.7C8.5,6.8,8.5,6.9,8.5,7s0,0.2,0.1,0.3l4.7,4.7l-4.7,4.7c-0.1,0.1-0.1,0.2-0.1,0.3s0,0.2,0.1,0.3l0.6,0.6
	C9.3,18,9.4,18,9.5,18z"/>
</svg>
