<?xml version="1.0" encoding="utf-8"?>
<!-- Generator: Adobe Illustrator 19.2.1, SVG Export Plug-In . SVG Version: 6.00 Build 0)  -->
<svg version="1.1" id="Layer_1" xmlns="http://www.w3.org/2000/svg" xmlns:xlink="http://www.w3.org/1999/xlink" x="0px" y="0px"
	 viewBox="0 0 24 24" style="enable-background:new 0 0 24 24;" xml:space="preserve">
<style type="text/css">
	.st0{fill:#010101;}
</style>
<path class="st0" d="M19.2,6.7c0.8-0.5,1.4-1.2,1.7-2.1c-0.8,0.5-1.6,0.8-2.5,0.9c-0.8-0.8-1.7-1.2-2.8-1.2c-1.1,0-2,0.4-2.7,1.1
	s-1.1,1.7-1.1,2.7c0,0.3,0,0.6,0.1,0.9C10.3,9,8.8,8.6,7.4,7.9C6,7.2,4.8,6.2,3.9,5C3.5,5.6,3.3,6.3,3.3,7c0,0.7,0.2,1.3,0.5,1.9
	c0.3,0.6,0.7,1,1.3,1.4c-0.6,0-1.2-0.2-1.8-0.5v0c0,0.9,0.3,1.8,0.9,2.5s1.3,1.2,2.2,1.3c-0.3,0.1-0.7,0.1-1,0.1
	c-0.2,0-0.5,0-0.7-0.1c0.2,0.8,0.7,1.4,1.4,1.9s1.4,0.8,2.3,0.8c-1.4,1.1-3,1.7-4.8,1.7c-0.3,0-0.7,0-0.9,0c1.8,1.2,3.8,1.7,6,1.7
	c1.4,0,2.7-0.2,3.9-0.7s2.2-1,3.1-1.8c0.9-0.7,1.6-1.6,2.2-2.5c0.6-1,1.1-1.9,1.4-3s0.5-2.1,0.5-3.1c0-0.2,0-0.4,0-0.5
	c0.8-0.6,1.4-1.2,1.9-2C20.7,6.5,20,6.7,19.2,6.7z"/>
</svg>
