<?xml version="1.0" encoding="utf-8"?>
<!-- Generator: Adobe Illustrator 19.2.1, SVG Export Plug-In . SVG Version: 6.00 Build 0)  -->
<svg version="1.1" id="Layer_1" xmlns="http://www.w3.org/2000/svg" xmlns:xlink="http://www.w3.org/1999/xlink" x="0px" y="0px"
	 viewBox="0 0 443.6 264.8" style="enable-background:new 0 0 443.6 264.8;" xml:space="preserve">
<style type="text/css">
	.st0{fill:#FF501A;}
	.st1{fill:#C93204;}
	.st2{fill:#F9840C;}
	.st3{fill:#D66200;}
	.st4{fill:#30D965;}
	.st5{fill:#27B353;}
	.st6{fill:#00F0C8;}
	.st7{fill:#00CFAC;}
	.st8{fill:#FFD60D;}
	.st9{fill:#E6BD00;}
	.st10{fill:#009DFF;}
	.st11{fill:#0081D1;}
	.st12{fill:#A82EFF;}
	.st13{fill:#7E22BF;}
	.st14{fill:#EF145D;}
	.st15{fill:#1A2426;}
	.st16{fill:#070C0D;}
	.st17{fill:#293538;}
	.st18{fill:#37484D;}
	.st19{fill:#727E82;}
	.st20{fill:#A6B4B8;}
	.st21{fill:#C0CCCF;}
	.st22{fill:#E9EEF0;}
	.st23{fill:none;stroke:#E9EEF0;stroke-width:0.398;stroke-miterlimit:10;}
	.st24{fill:#B80941;}
</style>
<rect x="0" class="st0" width="103.1" height="103.1"/>
<polygon class="st1" points="103.1,103.1 0,103.1 103.1,0 "/>
<rect x="113.4" class="st2" width="103.1" height="103.1"/>
<polygon class="st3" points="216.5,103.1 113.4,103.1 216.5,0 "/>
<rect x="340.2" class="st4" width="103.1" height="103.1"/>
<polygon class="st5" points="443.3,103.1 340.2,103.1 443.3,0 "/>
<rect x="0" y="113.4" class="st6" width="103.1" height="103.1"/>
<polygon class="st7" points="103.1,216.5 0,216.5 103.1,113.4 "/>
<rect x="226.8" class="st8" width="103.1" height="103.1"/>
<polygon class="st9" points="329.9,103.1 226.8,103.1 329.9,0 "/>
<rect x="113.4" y="113.4" class="st10" width="103.1" height="103.1"/>
<polygon class="st11" points="216.5,216.5 113.4,216.5 216.5,113.4 "/>
<rect x="226.8" y="113.4" class="st12" width="103.1" height="103.1"/>
<polygon class="st13" points="329.9,216.5 226.8,216.5 329.9,113.4 "/>
<rect x="340.2" y="113.4" class="st14" width="103.1" height="103.1"/>
<rect x="50.5" y="224.8" class="st15" width="39.8" height="39.8"/>
<rect y="224.8" class="st16" width="39.8" height="39.8"/>
<rect x="100.9" y="224.8" class="st17" width="39.8" height="39.8"/>
<rect x="151.4" y="224.8" class="st18" width="39.8" height="39.8"/>
<rect x="201.8" y="224.8" class="st19" width="39.8" height="39.8"/>
<rect x="252.3" y="224.8" class="st20" width="39.8" height="39.8"/>
<rect x="302.7" y="224.8" class="st21" width="39.8" height="39.8"/>
<rect x="353.2" y="224.8" class="st22" width="39.8" height="39.8"/>
<rect x="403.6" y="224.8" class="st23" width="39.8" height="39.8"/>
<polygon class="st24" points="443.3,216.5 340.2,216.5 443.3,113.4 "/>
</svg>
