<?xml version="1.0" encoding="utf-8"?>
<!-- Generator: Adobe Illustrator 19.2.1, SVG Export Plug-In . SVG Version: 6.00 Build 0)  -->
<svg version="1.1" id="Layer_1" xmlns="http://www.w3.org/2000/svg" xmlns:xlink="http://www.w3.org/1999/xlink" x="0px" y="0px"
	 viewBox="0 0 89.6 50" style="enable-background:new 0 0 89.6 50;" xml:space="preserve">
<style type="text/css">
	.st0{fill:#2B2B2B;}
</style>
<g>
	<path class="st0" d="M82.6,39.6c0,1.9-1.6,3.5-3.5,3.5h-3.5V7h3.5c1.9,0,3.5,1.6,3.5,3.5V39.6z M79.1,0h-9.9
		c-0.4,0-0.6,0.3-0.6,0.6v48.7c0,0.4,0.3,0.6,0.6,0.6h9.9c5.8,0,10.5-4.7,10.5-10.4V10.4C89.6,4.7,84.9,0,79.1,0z M59.7,39.6
		c0,1.9-1.6,3.5-3.5,3.5s-3.5-1.6-3.5-3.5V10.4c0-1.9,1.6-3.5,3.5-3.5s3.5,1.6,3.5,3.5V39.6z M56.2,0c-5.8,0-10.5,4.7-10.5,10.4
		v29.1c0,5.8,4.7,10.4,10.5,10.4c5.8,0,10.5-4.7,10.5-10.4V10.4C66.7,4.7,62,0,56.2,0z M10.5,0C4.7,0,0,4.7,0,10.4v29.1
		C0,45.3,4.7,50,10.5,50c2.5,0,4.7-0.9,6.5-2.3l0.8,2.3h2.5c0.4,0,0.6-0.3,0.6-0.6V20.9c0-0.4-0.3-0.6-0.6-0.6h-9.5
		c-0.4,0-0.6,0.3-0.6,0.6v5.7c0,0.4,0.3,0.6,0.6,0.6H14v12.3c0,1.9-1.6,3.5-3.5,3.5S7,41.5,7,39.6V10.4C7,8.5,8.6,7,10.5,7
		S14,8.5,14,10.4v2.2c0,0.3,0.3,0.6,0.6,0.6h5.7c0.4,0,0.6-0.3,0.6-0.6v-2.2C21,4.7,16.3,0,10.5,0z M36.9,39.6
		c0,1.9-1.6,3.5-3.5,3.5c-1.9,0-3.5-1.6-3.5-3.5V10.4c0-1.9,1.6-3.5,3.5-3.5c1.9,0,3.5,1.6,3.5,3.5V39.6z M33.4,0
		c-5.8,0-10.5,4.7-10.5,10.4v29.1c0,5.8,4.7,10.4,10.5,10.4s10.5-4.7,10.5-10.4V10.4C43.9,4.7,39.1,0,33.4,0z"/>
</g>
</svg>
