<?xml version="1.0" encoding="utf-8"?>
<!-- Generator: Adobe Illustrator 19.2.1, SVG Export Plug-In . SVG Version: 6.00 Build 0)  -->
<svg version="1.1" id="Layer_1" xmlns="http://www.w3.org/2000/svg" xmlns:xlink="http://www.w3.org/1999/xlink" x="0px" y="0px"
	 viewBox="0 0 191.3 36.9" style="enable-background:new 0 0 191.3 36.9;" xml:space="preserve">
<style type="text/css">
	.st0{fill:#010101;}
</style>
<g>
	<circle class="st0" cx="98.8" cy="3" r="3"/>
	<circle class="st0" cx="124.9" cy="3" r="3"/>
	<g>
		<path class="st0" d="M84.1,10.7c-4.1,0-6.7,2-8,4.3V0.6h-4.4v35.7h4.4V21.8c0-3.9,2.4-7.3,6.6-7.3c3.7,0,5.7,1.8,5.7,7.2v14.5h4.4
			V20.6c0-2.9-0.5-5.1-1.6-6.7C89.8,11.8,87.4,10.7,84.1,10.7z"/>
		<polygon class="st0" points="113.7,3.4 109.4,3.4 109.4,11.3 104.5,11.3 104.5,14.9 109.4,14.9 109.4,36.3 113.7,36.3 113.7,14.9 
			119.2,14.9 119.2,11.3 113.7,11.3 		"/>
		<path class="st0" d="M58.5,33.3c-4.2,0-7.4-3.5-7.4-9.4c0-6,2.9-9.5,7.4-9.5c3.7,0,5.8,2.1,6.8,5l3.6-1.9
			c-1.7-4.3-5.2-6.8-10.4-6.8c-7,0-11.9,5.1-11.9,13.2c0,8,4.5,13,11.9,13c4.9,0,8.6-2.3,10.7-6.4l-3.4-1.7
			C64.5,31.5,62.3,33.3,58.5,33.3z"/>
		<polygon class="st0" points="150.1,14.6 150.1,11.3 131.3,11.3 131.3,14.9 144.6,14.9 130.6,32.8 130.6,36.3 150.3,36.3 
			150.3,32.6 135.7,32.6 		"/>
		<path class="st0" d="M163.3,10.7c-6.9,0-11.9,5.3-11.9,13c0,8.3,4.8,13.2,11.9,13.2c6.8,0,10.1-4.3,11-5.8l-3.1-2.3
			c-0.9,1.5-3.1,4.2-7.5,4.2c-5.5,0-7.8-4.2-7.9-8.3h18.7v-0.9C174.5,16.4,170.8,10.7,163.3,10.7z M156,21.3
			c0.5-4.4,3.5-7.1,7.3-7.1c3.9,0,6.3,2.7,6.7,7.1H156z"/>
		<path class="st0" d="M189.9,10.7c-3.5,0-7,2.5-7.6,5.4v-4.7H178v25h4.4V23.2c0-4.2,2.6-8.4,7.3-8.4c0.5,0,1.1,0.1,1.6,0.2v-4.1
			C190.9,10.7,190.4,10.7,189.9,10.7z"/>
		<rect x="96.6" y="11.3" class="st0" width="4.4" height="25"/>
		<path class="st0" d="M37.6,16v-4.7h-4.4v25h4.4V23.2c0-4.2,2.6-8.4,7.3-8.4c0.5,0,1.1,0.1,1.6,0.2v-4.1c-0.4-0.1-0.9-0.2-1.4-0.2
			C41.7,10.7,38.2,13.1,37.6,16z"/>
		<polygon class="st0" points="12.8,0.6 0,36.3 18.8,36.3 18.8,32.1 6.3,32.1 15.1,6 15.2,6 25.4,36.3 30.4,36.3 17.9,0.6 		"/>
		<rect x="122.7" y="11.3" class="st0" width="4.4" height="25"/>
	</g>
</g>
</svg>
