<?xml version="1.0" encoding="utf-8"?>
<!-- Generator: Adobe Illustrator 19.2.1, SVG Export Plug-In . SVG Version: 6.00 Build 0)  -->
<svg version="1.1" id="Layer_1" xmlns="http://www.w3.org/2000/svg" xmlns:xlink="http://www.w3.org/1999/xlink" x="0px" y="0px"
	 viewBox="0 0 145.2 71.1" style="enable-background:new 0 0 145.2 71.1;" xml:space="preserve">
<style type="text/css">
	.st0{fill:#010101;}
</style>
<g>
	<path class="st0" d="M24.9,22c0.1,1.6,0.3,2,1.3,2.6c0.7,0.5,1.3,0.6,2,0.6c0.5,0,1.1-0.1,1.6-0.1c1.2,0,1.7,0.2,2.9-0.4
		c0.8-0.4,1.1-0.7,1.3-1.2c0.2-0.4,0.5-1.1,0.5-1.5c0-0.3-0.2-0.6-0.2-1c-0.4-1.4-1-1.5-1.7-1.9c-0.4-0.2-0.8-0.5-1.5-0.5
		c-0.4,0-0.6,0.1-1,0c-0.7-0.1-0.8-0.1-1.3-0.1l-0.8,0.2c-0.3,0.1-0.4,0.2-0.6,0.3c-0.1,0.1-1,0.2-1.5,0.8c-0.2,0.2-0.3,0.4-0.5,0.8
		c-0.2,0.3-0.3,0.5-0.3,0.8V22z M25,2.2c0,0.6-0.1,1.1-0.1,1.8c0,0.7,0.1,1.2,0,1.9c0,0.4-0.1,0.7-0.1,1.2c0,0.2,0.1,0.8,0.4,1
		c0.1,0.1,0.3,0.1,0.3,0.1c0.6,0,1.2-0.5,2.4-0.8l1.5-0.4l0.4-0.1c0.3,0,0.5,0,0.7-0.1c0.4-0.1,0.5-0.1,0.9-0.1h0.5
		c0.4,0,0.5-0.1,0.9,0c0.4,0.1,0.7,0.2,1.1,0.2C34.5,7,35,7,35.7,7.1l1.5,0.3c0.5,0.1,0.8,0.1,1.3,0.2c0.2,0.1,0.4,0.2,0.8,0.4
		c0.1,0.1,1.3,0.7,1.5,0.8l0.4,0.3c0.3,0.3,0.5,0.5,0.9,0.7c0.8,0.6,0.6,0.3,1.6,1.2c0.7,0.7,1.1,1.4,1.3,1.8
		c1.4,2.3,0.9,1.6,1.7,3.9c0.7,2.2,1.1,2.3,1.2,4.4c0.1,0.4,0.1,0.7,0.1,1.1c0,1.3-0.2,1.8-0.4,2.5c0,0.2-0.1,0.3-0.1,0.5l-0.2,0.6
		c-0.1,0.6-0.2,1-0.4,1.6c-0.2,0.6-0.4,0.9-0.5,1.2c-0.4,0.8-0.7,1-1.2,1.7c-0.2,0.3-0.3,0.6-0.5,1L44,32c-0.2,0.3-0.3,0.6-0.6,0.9
		c-0.4,0.6-1,1.1-1.1,1.2c-0.5,0.4-1,0.6-1.4,1c-0.3,0.2-0.5,0.4-0.8,0.6c-0.6,0.4-1.1,0.5-1.8,0.8c-0.5,0.2-1,0.5-1.4,0.7l-1.3,0.2
		c-0.4,0.1-0.7,0.2-1.1,0.2c-1.2,0.2-2,0.4-2.5,0.4c-0.8,0-1.6-0.2-1.9-0.2l-1.4-0.1c-0.3-0.1-2.8-0.2-4.6-1.5
		c-0.3-0.3-0.5-0.5-0.6-0.6c-0.2-0.1-0.3-0.2-0.3-0.2c-0.4-0.1-0.5,0.4-0.5,0.8c0,0.1-0.1,0.7-0.5,1.1c-0.2,0.2-0.4,0.3-1,0.3
		c-0.4,0-0.7-0.1-1.2-0.1c-0.7-0.1-1.3-0.1-2-0.1c-1.3,0-2.1,0.1-3.4,0.1c-0.6,0.1-1,0.1-1.5,0.1c-0.1,0-1.4,0.1-1.8-1
		c-0.2-0.3-0.2-1.3-0.2-1.6c0-0.6,0.1-1.1,0.2-1.7c0.1-0.8,0-1.3,0-2c0-0.5,0.1-0.8,0.1-1.3c0-0.8-0.1-1.4-0.1-2.2
		c0-1,0.1-1.7,0.2-2.8c0.1-0.8,0.1-1.4,0.1-2.2c0-0.7,0.1-1.1,0.1-1.8c0-2.1-0.4-3.5-0.4-5.6v-2.6c0-0.8,0.1-1.3,0.2-2.1
		c0.1-0.5,0.1-0.8,0.1-1.3c0-1.6,0-2.8-0.1-4.4c-0.1-0.9-0.1-1.5-0.1-2.4C11.4,0.3,12.4,0,13.7,0h1.3c0.5,0,1.3,0.1,1.4,0.1
		c0.5,0.1,0.9,0.2,1.9,0.2c0.2,0,1,0,1.6-0.1C20.4,0.1,20.5,0,21.1,0c0.5,0,0.8,0.1,1.4,0.1c1.3,0.1,2.5,0.3,2.5,2V2.2z"/>
	<path class="st0" d="M57.5,37.4c-1.4,0-2.3,0.2-3.7,0.2c-0.3,0-1.7,0.1-2.8-1c-0.3-0.3-0.5-0.6-0.6-0.7c-0.3-0.7-0.3-1.8-0.3-1.9
		v-1.3l0.1-2l0.2-2.2c0.1-0.6,0-1.1,0.1-1.6c0-0.4,0.1-0.7,0.1-1.1c0-0.4-0.1-0.7-0.1-1.2c0-0.5,0.1-0.9,0.1-1.4
		c0-1.2-0.2-2-0.2-3.2c0-1.2,0.2-2,0.2-3.1c0-1.3-0.2-2.3-0.2-3.6c0-0.9,0.1-1.6,0.1-2.6c0-0.7-0.1-1.2,0-1.9c0-0.5,0.1-0.8,0.1-1.3
		c0-0.5-0.1-0.8-0.1-1.3l-0.1-1.5c-0.1-0.5-0.1-0.8-0.1-1.3c0-0.2-0.1-0.2,0-0.5c0,0,0.2-1.2,0.7-1.8c0.1-0.1,0.3-0.4,0.7-0.6
		c0.2-0.1,0.6-0.3,1.1-0.3c0.5,0,0.8,0.1,1.3,0.1c0.3-0.1,0.5-0.1,0.7-0.1c0.2,0,0.5,0.1,0.7,0.1h0.1c0.4,0,0.7-0.1,1.1-0.1
		c1,0,1.6,0.2,2.5,0.2c1,0,1.6-0.2,2.6-0.2c1,0,1.3,0.2,1.7,0.7C64.1,1.6,64,2.5,64,2.6C64,3.4,64,4,63.9,4.8
		c-0.1,0.9-0.1,1.5-0.1,2.4c0,0.4-0.1,0.7-0.1,1.1c0,0.6,0.2,1,0.2,1.6v1.3c0,0.8,0.1,1.4,0.1,2.2c0,1.1-0.3,1.8-0.3,2.9
		c0,0.5,0.1,0.8,0.1,1.3v0.7c0,0.7,0,1.2,0.1,1.9c0,0.7-0.1,1.4-0.2,2.2c0,0.6,0.1,1,0.1,1.5c0,0.5,0.1,0.9,0.1,1.4
		c0,1-0.1,1.6-0.1,2.6c0,0.3,0,0.6,0,1c0,1-0.1,1.1,0,2.1c0.1,1.2,0.4,2,0.4,3.2s-0.2,1.3-0.4,2c-0.2,0.4-0.4,0.6-0.6,0.8
		c-0.5,0.4-0.7,0.4-1,0.5c-0.2,0.1-1.3,0.1-1.4,0.1c-0.4,0-0.7-0.1-1.1-0.1H57.5z"/>
	<path class="st0" d="M88.4,37.6c-0.2,0-1.7,0.2-2.2-1.3c-0.1-0.2-0.3-1.3-0.7-1.3c-0.3-0.1-0.6,0.4-0.8,0.6L84.4,36l-0.3,0.2
		c-1.2,1-1.1,0.7-2.3,1.1c-0.6,0.2-0.6,0.3-1.2,0.4c-0.7,0.2-1.8,0.3-3.4,0.3c-1.4,0-2-0.3-2.7-0.4l-0.8-0.2L73,37.2
		c-0.5-0.2-0.8-0.4-1.3-0.6c-0.6-0.2-0.8-0.3-1.4-0.7c-0.8-0.6-1.3-1.4-1.5-1.7c-0.7-1-0.9-1.1-1.2-2.7c-0.2-1.3-0.2-2.6-0.3-3.1
		c0-1-0.1-1.6-0.2-2.6C67,25,67,24.4,67,23.5v-0.3c0-0.2,0-0.9,0.1-1.6c0.1-0.8,0.2-1.1,0.2-1.6c0-0.6-0.1-1.1-0.1-1.8
		c0-0.6,0-1.1-0.1-1.7c0-0.5-0.1-0.9-0.1-1.4c0-1,0.1-1.7,0.1-2.8c-0.1-0.6-0.1-1-0.1-1.5c0-0.6,0.1-2.2,0.5-2.8
		c0.3-0.4,0.6-0.6,1.3-0.7c0.5-0.1,0.5-0.1,0.8-0.1c0.3,0,0.5,0,0.8,0.1c1.2,0.1,2.3,0.2,2.7,0.2c0.7,0,1.3-0.2,2-0.2
		c0.6,0,1,0.1,1.6,0.1c0.4-0.1,0.7-0.1,1.2-0.1c1.1-0.1,2,0.5,2.4,0.8c0.2,0.3,0.3,0.4,0.4,0.6c0.1,0.1,0.2,0.5,0.2,0.8v1.2
		c0,0.4-0.1,0.7-0.1,1.1c-0.1,0.7-0.1,1.1-0.1,1.8c0,0.7,0.1,1.2,0.1,2c0,0.7-0.1,1-0.2,1.7c-0.1,0.8-0.1,1.4-0.1,1.7
		c0,1,0.1,3.4,0.7,4.3c0.2,0.4,0.6,0.6,0.7,0.7c0.3,0.2,0.6,0.2,0.7,0.2c1.1,0,1.6-1.4,1.7-2.1c0.1-0.7,0-1.2,0.2-1.8
		c0-0.4,0.1-0.7,0.1-1.1c0-0.4-0.1-0.7-0.1-1.2v-1.2c0-0.4-0.1-0.6-0.1-1c-0.1-0.6,0.1-1.4,0.2-2.1c0.1-0.5,0.1-0.6,0.1-1.4
		c0-1.1-0.2-1.9-0.2-3c0-1.7,0.8-2.3,1.9-2.3c0.7,0,1.1,0.2,1.8,0.2c0.9,0,1.5-0.2,2.4-0.2c0.8,0,1.4,0.1,2.3,0.1
		c0.3,0,0.6,0,1.1-0.1c0.8-0.1,2.2-0.3,3,0.2C97.6,7.5,98,7.9,98,7.9c0.7,0.8,0.7,1.4,0.7,1.7c0,0.7-0.3,1.7-0.3,1.8
		c0,0.1-0.2,2-0.2,2.1c0,0.3,0.1,0.5,0.1,0.8c0,0.6-0.1,1-0.1,1.6v2.1l0.1,1.2V20c0.1,0.6,0.1,1.1,0.1,1.7c0.1,1.3-0.2,2.3-0.2,3.7
		c0,1.2,0.2,2.1,0.1,3.3c-0.1,0.9-0.1,1.6-0.1,2.5c0,1.1,0.1,1.8,0.2,2.2c0.1,0.3,0.3,0.8,0.3,1.5c0,0.1,0,1.4-0.8,2.1
		c-0.5,0.5-1.3,0.5-2.5,0.5c-1,0-1.7-0.1-2.7-0.1c-1,0-1.6,0.1-2.7,0.2H88.4z"/>
	<path class="st0" d="M113.5,16.9c0,0.1,0,0.2,0.1,0.4c0.2,0.3,0.8,0.6,1.6,0.6c0.4,0,0.6,0,1-0.1c0.4,0,0.7,0.1,1.1,0
		c0.6-0.1,0.6-0.1,1.1-0.1c0.6,0,1.1,0.1,1.7,0.1c0.9,0,1.4-0.5,1.4-1c0-0.3-0.3-0.9-1.1-1.2c-0.4-0.2-2-0.3-2.4-0.3
		c-0.6,0-1,0.2-1.6,0.2c-1.3,0-1.9-0.1-2.4,0.4C113.8,16,113.5,16.3,113.5,16.9L113.5,16.9z M130.9,25.2c-0.6,0-1,0.1-1.5,0.1
		c-1,0-1.6-0.1-2.6,0c-0.9,0.1-1.5,0.2-2.4,0.2c-0.7,0-1.6-0.1-1.8-0.1c-0.6-0.1-0.9-0.1-1.2-0.1c-0.6,0-1,0.1-1.6,0.1
		c-1.3,0-2.2-0.1-3.5-0.1c-0.9,0-1.5,0.1-1.8,0.5c-0.1,0.2-0.2,0.3-0.2,0.5c0,0.5,0.5,0.8,0.6,0.9c0.5,0.3,1.5,0.8,2.8,0.8
		c0.3,0,0.6-0.1,0.9-0.1h1.5c0.2,0.1,1.4,0.3,2.3,0.3c0.7,0,1.2-0.1,1.9-0.1h2.9c0.6,0,0.6,0,0.9-0.1c1-0.2,1.2-0.4,2.1-0.4
		c1,0,1.9,0.5,1.9,1.7c0,0.4-0.1,0.6-0.1,1.1c-0.1,0.8-0.1,1.4-0.1,2.2c0,0.6,0.1,0.8,0.1,1.1c0.2,0.7,0.2,1.1,0.2,1.5
		c0,0.2-0.1,1.3-1.1,1.8c-0.3,0.2-0.6,0.2-0.9,0.3c-2.2,0.6-3.3,0.5-4.3,0.6c-0.4,0-0.7,0.1-1.1,0.1c-0.4,0-0.7-0.1-1.2-0.1
		l-1.8,0.2h-0.8c-0.3,0-0.5,0.1-0.8,0.1c-0.5,0-0.9-0.1-1.4-0.2c-0.3,0-0.5,0-0.8-0.1c-0.4-0.1-0.6-0.2-1.1-0.2l-1.2-0.2
		c-0.5-0.2-0.8-0.3-1.4-0.5l-1.3-0.2c-0.4-0.1-0.6-0.2-0.9-0.3l-1.3-0.4c-0.4-0.2-2.5-1.3-3-1.6c-0.2-0.1-0.4-0.2-0.6-0.4
		c-0.5-0.4-1.4-1.1-1.9-1.6c-0.2-0.2-0.3-0.4-0.5-0.7l-0.5-0.5l-0.6-1c-1.1-1.5-1.6-2.2-2.3-4.9c-0.3-1.4-0.4-1.9-0.4-2.6
		c0-0.6,0-1,0-1.6v-0.8c0.1-0.5,0.1-0.8,0.2-1c0.1-0.3,0.2-0.5,0.3-0.8l0.2-1.1l0.4-1.1l0.2-0.6l0.2-0.3l0.5-1
		c0.3-0.5,0.4-1,0.7-1.4c0.4-0.5,0.7-0.7,1.1-1.2c0.3-0.4,0.4-0.6,0.7-1c0.8-1,1.8-1.5,2.1-1.6c1.4-1,1.2-0.6,2.6-1.3
		c0.9-0.4,0.9-0.5,2.4-1c0.6-0.2,0.7-0.2,1.1-0.3l1.2-0.1c1-0.1,1.2-0.2,1.8-0.2c2.4,0,3.6,0.2,4.8,0.4c0.5,0.1,0.8,0.1,1.3,0.2
		c0.6,0.1,1,0.3,1.6,0.4c0.5,0.1,1,0.2,1.5,0.4c0.4,0.2,1.1,0.6,1.4,0.9l1.3,0.7c0.8,0.6,1.2,1.1,2,1.9c0.7,0.7,0.9,0.9,1.2,1.3
		c0.3,0.4,0.4,0.6,0.6,1c0.3,0.4,0.5,0.6,0.6,1.1c0.3,0.6,0.4,1.6,0.4,1.6c0.1,0.4,0.2,0.6,0.3,1c0.1,0.2,0.1,0.3,0.1,0.5
		c0,0.5,0,0.9,0.1,1.5c0.1,1.1,0.3,1.1,0.3,2.1c0,1.5-0.4,3.7-2.6,3.7H130.9z"/>
	<path class="st0" d="M16.7,40.2c0.5,0,0.9,0.1,1.3,0.1c0.7,0,1.2-0.1,1.8-0.1c2.6,0,3.5,1,3.5,2.6c0,1.4-0.1,2.4-0.1,3.9l0.1,1.8
		c0.1,0.4,0.1,0.6,0.1,1c0,0.8-0.2,1.7-0.3,1.9c-0.4,1.3-1.8,1.2-2,1.2h-1c-0.7,0-1.2,0.1-2,0.1c-0.5,0-1.6-0.2-2.9,0.3
		c-0.5,0.2-0.8,0.4-1,0.6c-0.2,0.2-0.4,0.5-0.6,1c-0.1,0.2-0.2,0.3-0.2,0.6c0,0-0.1,0.7-0.1,1.2c0,0.7,0.3,1.2,0.5,1.5
		c0.8,1.1,2.1,0.9,2.3,0.9c2.1,0,0.8-0.1,2.6,0.1c0.3,0.1,0.2,0.1,0.4,0.1c0.6,0,1-0.2,1.6-0.2c0.3,0,2.4,0,2.4,2
		c0,0.7-0.1,1.1-0.1,1.7c-0.1,0.9-0.1,1.5-0.1,2.3c0,1,0.1,1.3,0.2,1.8c0.1,0.2,0.1,0.7,0.1,1.3c0,1.6-0.8,2.1-1.6,2.5
		c-0.2,0.1-0.4,0.2-0.8,0.3c-0.8,0.3-2.2,0.3-4.1,0.3c-0.8,0-1.4-0.1-2.2-0.1c-0.4,0-0.7,0-1.1-0.1c-0.3,0-0.5-0.1-0.8-0.1
		c-0.7-0.1-0.8-0.1-1.3-0.2c-0.5-0.2-1-0.3-1.5-0.5c-0.7-0.2-1.2-0.3-2.4-1.1C6.4,68.1,6.3,68,5.3,67l-1.5-1.4
		c-0.3-0.3-0.7-0.6-1.3-1.4c-0.6-0.7-0.6-0.9-1-1.7c-0.2-0.3-0.3-0.5-0.4-0.8c-0.1-0.3-0.1-0.5-0.2-0.7l-0.3-0.5
		c-0.2-0.5-0.4-1.5-0.4-1.5c-0.1-0.4-0.2-0.6-0.2-1.1c-0.1-0.5-0.1-1-0.1-1.5c0-0.5-0.1-0.9-0.1-1.4c0-1.1,0.4-3,0.5-3.1
		c0-0.2,0.1-0.3,0.1-0.4L1,50.3c0.3-0.7,0.3-1.1,0.7-1.9C2.1,47.7,3,46.5,3,46.5c1-1.4,1-1.6,2.4-3c0.6-0.6,1-0.9,1.4-1.2
		c0.4-0.3,0.6-0.4,1-0.6l0.9-0.5c0.5-0.3,1.9-0.6,3.3-0.8c1.4-0.2,2-0.3,2.6-0.3c0.4,0,0.7,0.1,1.1,0.1H16.7z"/>
	<path class="st0" d="M34.1,70.6c-0.4,0-0.7,0-1.1,0c-0.7,0-1.2,0-1.9,0c-0.8,0-1.4,0.2-2.2,0.2c-0.7,0-1.4-0.1-2.1-0.9
		c-0.3-0.4-0.3-0.5-0.4-0.7c-0.1-0.3-0.1-0.5-0.1-1.2c0-0.3-0.1-0.5-0.1-0.8c0-0.4,0.1-0.7,0.1-1.1v-1c0.1-0.4,0.1-0.6,0.1-1.1
		c0.1-0.3,0.1-0.5,0.1-0.7v-0.6c0-0.9,0-1.5-0.1-2.3c-0.1-0.5-0.1-1-0.1-1.5c0-0.6,0.1-1,0.1-1.6v-0.8c0.1-0.4,0.1-0.7,0.1-1.2
		c0-0.7-0.1-1.1-0.1-1.7c0-0.6,0-1.1-0.1-1.6c-0.1-0.8-0.2-1.4-0.2-2.3c0-1.3,0.2-2.1,0.2-3.3v-1.5c0.1-0.7,0.1-1.2,0.1-1.9
		c0-0.8-0.1-1.4-0.1-2.3c-0.1-1.1-0.1-1.9-0.1-3v-2.3c0-0.5,0.1-0.9,0.4-1.4c0.3-0.4,0.5-0.5,0.6-0.5c0.5-0.2,1.6-0.2,2.1-0.2
		c0.5,0,0.8,0,1.3,0.1c0.3,0,0.4,0.1,0.7,0.1c0.4,0,0.7-0.1,1.1-0.1c0.6,0.1,1.1,0.2,1.7,0.2c0.8,0,1.7-0.1,1.9-0.1
		c0.5-0.1,0.6-0.1,0.9-0.1c0.5,0,1.6,0.1,2.1,0.7c0.2,0.2,0.3,0.4,0.3,0.6c0.2,0.5,0.3,1,0.3,1.4c0,0.5-0.1,0.8-0.1,1.3
		c0,0.3,0.1,0.5,0.1,0.8c0,0.4-0.1,0.7-0.1,1.2c0,0.4,0,0.7-0.1,1.1c-0.1,0.7-0.2,1-0.1,1.4c0,0.5,0.3,0.8,0.6,0.8
		c0.4,0,0.6-0.3,1.4-0.8c0.7-0.5,1.2-0.5,1.5-0.6c0.4-0.1,0.6-0.3,0.9-0.4c0.5-0.2,0.9-0.2,1.4-0.2c0.3-0.1,0.8-0.2,1.5-0.2
		c0.2,0,0.4,0,0.7,0c0.3,0.1,0.5,0.1,0.9,0.1c1,0,0.5-0.2,1.7,0.2l0.8,0.3l0.8,0.3c0.3,0.2,0.5,0.2,0.8,0.4c0.3,0.1,1.2,0.7,1.4,1
		c0.1,0.1,0.3,0.4,0.3,0.4l0.6,0.7c0.6,0.8,0.5,0.8,1.1,2.1c1.2,2.4,1.3,4.3,1.3,5.3c0,0.7-0.1,1.3,0.1,2.1c0,0.5,0.1,0.8,0.2,1.3
		c0,0.4-0.1,0.7,0,1.1c0,0.4,0.1,0.6,0.1,1c0,0.4-0.1,0.6-0.1,1.1c0,1,0.1,1,0,1.6c-0.1,0.9-0.2,1.1-0.2,2c0,0.6,0.1,1,0.1,1.6
		c0,0.8-0.2,1.4-0.2,2.2c0,0.8,0.1,1.2,0.2,1.6c0.1,0.7,0.2,1.4,0.2,2.1c-0.1,0.7-0.2,1.6-1.1,2c-0.3,0.1-0.7,0.3-1.3,0.3
		c-0.6,0-1-0.1-1.5-0.1l-1.5-0.1c-0.4,0-0.6,0-1,0c-1.2,0-2,0.2-3.1,0.2c-1.1,0-2.5-0.3-2.6-0.4c-0.3-0.1-0.3-0.1-0.6-0.2
		c-0.8-0.6-0.8-1.3-0.8-1.5c0-0.5,0.2-0.7,0.2-1.2c0-0.3-0.1-0.5-0.1-0.8v-1.2c0-0.8,0.2-1.7,0.2-2.5c0-0.5-0.1-1-0.2-1.5
		c-0.1-0.4-0.1-1-0.1-1.1c0-0.9,0.1-1.5,0.1-2.4c0-1-0.2-1.8-0.3-2.2c-0.1-0.3-0.8-1.7-2-1.7c-1,0-1.8,0.2-2.1,1.4
		c-0.1,0.4-0.4,2.3-0.4,2.7c0,0.5,0.1,0.8,0.2,1.2V62c0,0.4,0,0.6-0.1,1c-0.1,0.2-0.2,0.8-0.2,1.4c0,0.7,0.2,2.1,0.3,2.8
		c0.1,0.4,0.1,0.7,0.1,1.1c0,0.3,0,0.5-0.1,0.8c-0.2,0.8-0.4,1.4-1.4,1.6c-0.5,0.1-0.9,0.2-1.1,0.2c-0.6,0-1.1-0.1-1.7-0.1
		c-0.4,0-0.6,0.1-0.9,0c-0.2,0-0.3,0-0.4,0H34.1z"/>
	<path class="st0" d="M75.8,58.5c-0.4,0-0.6,0-1,0h-0.1c-0.4,0-0.7,0.2-1.1,0.4c-1,0.6-0.9,1.4-0.9,1.6c0,0.5,0.2,1.6,1.6,1.6
		c0.6,0,1-0.1,1.5-0.1c0.3,0,1.2,0.1,2.2-0.5c0.3-0.2,0.5-0.4,0.5-0.6c0.2-0.4,0.2-0.8,0.2-1c0-0.4-0.2-0.6-0.3-0.7
		c-0.6-0.8-1.8-0.7-1.8-0.7H75.8z M76.8,40.1c0.4,0,0.6,0.1,0.9,0.1c3.1,0,2.3,0.1,4.6,0.4c0.8,0.1,1.4,0.1,2.2,0.3
		c1.2,0.3,1.8,0.7,2.4,1.2l0.5,0.4c0.4,0.3,0.7,0.4,1.1,0.7c1.9,1.5,2.6,3.1,2.9,3.8c0.4,0.7,0.4,1.2,0.5,1.5c0.1,0.3,0.1,1.1,0.2,2
		c0,0.4,0.1,0.7,0.1,1.1c0,0.6-0.1,1.1-0.2,1.7c-0.1,0.6-0.1,1-0.1,1.5c0,1.4,0.2,2.4,0.2,3.8c0,0.6-0.1,1.1-0.1,1.6
		c-0.1,0.6,0,1-0.1,1.6c-0.1,0.4-0.1,0.7-0.1,1.2c0,0.4,0,0.7,0,1.2c0,0.6-0.1,1.1-0.1,1.7c0,0.4,0,0.8,0.1,1
		c0.1,0.6,0.2,0.8,0.2,1.4c0,0.8-0.2,2.4-2.4,2.4c-0.5,0-0.9-0.1-1.4-0.1c-0.5,0-1.1,0.1-1.6,0.1h-1.4c-1,0-1.7,0.1-2.7,0.1
		c-0.3,0-0.5,0-0.8,0c-1.1,0-1.3-0.8-1.3-1.2c0-0.7,0.1-1.1-0.5-1.1c-0.3,0-0.5,0.3-0.8,0.5c-0.5,0.4-1,0.6-1.2,0.7
		c-0.4,0.2-0.6,0.3-1,0.5c-1.7,0.9-4.4,1-4.7,1c-0.7,0-1.3-0.1-2-0.2c-0.3,0-0.6-0.1-1-0.1c-0.5-0.1-0.4-0.1-0.7-0.2
		c-0.5-0.2-0.9-0.3-1.4-0.5c-1-0.3-1.1-0.2-2.1-0.7c-0.3-0.1-0.6-0.3-0.8-0.5c-0.9-0.6-0.7-0.6-1.8-1.6L62,66.9l-0.4-0.5
		c-0.4-0.5-0.5-0.9-0.8-1.5c-0.6-1.3-1-2.1-1-3.3c0-1.9,0.2-2.6,0.5-3.5c0.2-0.6,0.4-1,0.5-1.3l0.5-1c0.4-0.6,1.3-2.2,3-3.2
		c1.2-0.7,2.2-0.8,3.4-1.2c0.6-0.2,1.1-0.4,1.7-0.5c0.7-0.2,1.3-0.1,2.1-0.2c0.2-0.1,0.7-0.1,1.4-0.1c0.4,0,0.7,0.1,1.1,0.1
		c0.3,0,0.5-0.1,0.7-0.1c0.3,0,0.6,0.1,0.7,0.1c0.7,0.2,1.3,0.3,2.1,0.5c0.1,0,0.3,0.1,0.5,0.1c0.4,0,0.9-0.2,0.9-0.7
		c0-0.3-0.2-0.6-0.2-0.6c-0.3-0.6-0.6-0.6-1.1-0.9c-0.6-0.4-0.7-0.4-1.7-0.4c-0.9,0-1.6-0.2-2.5-0.2h-0.2c-0.6,0-2.2,0.1-2.8,0.2
		l-0.8,0.2c-0.5,0.1-0.9,0.2-1.4,0.2c-0.8,0.2-1.5,0.4-2.3,0.4c-0.2,0-0.9-0.1-1.1-0.2c-0.2-0.1-0.3-0.2-0.4-0.4
		c-0.1-0.2-0.3-0.3-0.4-0.7C64,47.8,64.1,47.5,64,47c0-0.3-0.1-0.5-0.1-0.9c0-0.5,0.1-0.8,0.1-1.3c-0.1-0.6-0.2-1.1-0.2-1.6
		c0-1.1-0.1-2,2.1-2.4l1.1-0.2c0.4,0,0.7-0.2,1.1-0.2c0.5-0.1,0.7-0.1,1.2-0.1c0.6,0,1.1-0.2,1.7-0.2h0.8c0.5,0,0.9,0,1.4-0.1
		c0.5-0.1,0.8-0.1,1.3-0.1c0.5,0,0.9,0.1,1.4,0.1C76.3,40.1,76.5,40.1,76.8,40.1L76.8,40.1z"/>
	<path class="st0" d="M102.4,70.6c-1.4,0-2.3,0.2-3.7,0.2c-0.3,0-1.7,0.1-2.8-1c-0.3-0.3-0.5-0.6-0.6-0.7C95,68.4,95,67.3,95,67.3
		v-1.3l0.1-2l0.2-2.2c0.1-0.6,0-1.1,0.1-1.6c0-0.4,0.1-0.7,0.1-1.1c0-0.4-0.1-0.7-0.1-1.2c0-0.5,0.1-0.9,0.1-1.4
		c0-1.2-0.2-2-0.2-3.2c0-1.2,0.2-2,0.2-3.1c0-1.3-0.2-2.3-0.2-3.6c0-1,0.1-1.6,0.1-2.7c0-0.7-0.1-1.2,0-1.9c0-0.5,0.1-0.8,0.1-1.3
		c0-0.5-0.1-0.8-0.1-1.3l-0.1-1.5c-0.1-0.5-0.1-0.8-0.1-1.3c0-0.2-0.1-0.2,0-0.5c0,0,0.2-1.2,0.7-1.8c0.1-0.1,0.3-0.4,0.7-0.6
		c0.2-0.1,0.6-0.3,1.1-0.3c0.5,0,0.8,0.1,1.3,0.1c0.3-0.1,0.5-0.1,0.7-0.1c0.2,0,0.5,0.1,0.7,0.1h0.1c0.4,0,0.7-0.1,1.1-0.1
		c0.9,0,1.6,0.2,2.5,0.2c1,0,1.6-0.2,2.6-0.2c1,0,1.3,0.2,1.7,0.7c0.6,0.8,0.6,1.7,0.6,1.9c0,0.8-0.1,1.3-0.1,2.1
		c-0.1,0.9-0.1,1.5-0.1,2.4c0,0.4-0.1,0.7-0.1,1.1c0,0.6,0.2,1,0.2,1.6v1.3c0,0.8,0.1,1.4,0.1,2.2c0,1.1-0.3,1.8-0.3,2.9
		c0,0.5,0.1,0.8,0.1,1.3v0.7c0,0.7,0,1.2,0.1,1.9c0,0.7-0.1,1.4-0.2,2.2c0,0.6,0.1,0.9,0.1,1.5c0,0.5,0.1,0.9,0.1,1.4
		c0,1-0.1,1.6-0.1,2.6c0,0.3,0,0.6,0,0.9c0,1-0.1,1.1,0,2.1c0.1,1.2,0.4,2,0.4,3.2c0,1.2-0.2,1.3-0.4,2c-0.2,0.4-0.4,0.6-0.6,0.8
		c-0.5,0.4-0.7,0.4-1,0.5c-0.2,0.1-1.3,0.1-1.4,0.1c-0.4,0-0.7,0-1.1,0H102.4z"/>
	<path class="st0" d="M126.5,48.6c0.3-0.1,0.9-0.2,1.5-0.9c0.5-0.7,1.2-2.2,1.3-2.9c0.2-0.6,0.2-1,0.3-1.6c0.1-0.4,0.1-0.3,0.3-0.8
		l0.3-0.7l0.2-0.4c0.5-0.8,1.4-1,2-1c0.3,0,0.7,0.1,1.1,0.1c0.8,0,1.4-0.2,2.2-0.2c1,0,1.6,0.1,2.6,0.1c1.1,0,1.7-0.1,2.8-0.1
		c0.9,0,1.6,0,2.3,1c0.3,0.5,0.4,1,0.4,1.2c0.1,0.7-0.4,2-0.4,2l-0.6,1.4l-0.7,1.9c-0.5,1.4-0.9,2.5-1.2,3c-0.3,0.6-0.4,0.7-1.1,1.7
		l-0.7,1l-0.5,0.7c-0.4,0.6-0.4,1-0.4,1.3c0,0.3,0.1,0.6,0.3,0.8c0.2,0.4,1.2,1.6,1.4,2l0.6,0.7c0.1,0.3,0.1,0.3,0.3,0.5
		c0.4,0.4,0.3,0.2,0.5,0.7c0.5,0.7,0.6,1.3,0.9,2.1c0.2,0.4,0.5,1,1.1,2c0.1,0.2,0.3,0.3,0.4,0.5c0.3,0.3,0.4,0.6,0.6,0.9
		c0.5,0.6,0.5,0.5,0.9,1.4c0.2,0.5,0.2,0.8,0.2,1c0,1.6-0.7,2-1.6,2.3c-0.4,0.2-0.7,0.3-1.1,0.3c-0.3,0-0.4,0-0.7,0
		c-0.7-0.1-1.3-0.2-2.1-0.2c-0.3,0-0.6,0.1-0.9,0.1h-0.1c-0.7-0.1-1.2-0.2-1.8-0.2c-1.1,0-1.9,0.2-2.9,0.3c-0.4,0-0.7,0-1.2,0
		c-0.3,0-0.4,0-0.6,0c-0.3-0.2-1.1-0.5-1.7-1.5l-0.4-0.7l-0.3-0.4c-0.4-0.5-0.7-0.7-1.1-1.3c-0.2-0.3-0.3-0.5-0.5-0.8
		c-0.5-1-0.8-2.2-2-2.2h-0.1c-0.4,0-0.9,0.3-0.9,1v0.9c0,0.7,0,1.2,0.1,1.5c0.1,0.5,0.2,0.6,0.2,1.1c0,0.5-0.2,1-0.3,1.1
		c-0.4,0.8-1.1,1.3-2.4,1.3c-1.4,0-2.4-0.2-3.8-0.2c-1.1,0-1.9,0.1-2.2,0.2c-0.4,0.1-0.9,0.2-1.6,0.1c-1.2,0-2.2-0.3-2.8-1.3
		c-0.2-0.3-0.4-0.8-0.4-1.6c0-0.8,0.2-1.4,0.2-2.2c0-1-0.1-2-0.2-2.9c0-1.1,0.1-1.9,0.1-2.9c-0.1-0.8-0.2-1.5-0.2-2.3
		c0.1-1.2,0.2-2,0.2-3.1c0-0.7-0.1-1.3,0-2v-0.8c0.1-1.7-0.2-3-0.2-4.8c0-1.7,0.2-3,0.3-4.7c0-0.6,0.1-1,0.1-1.6
		c0-1.3-0.2-2.1-0.2-3.4c0-1-0.1-3.2,1.7-3.8c0.5-0.2,0.8-0.1,1-0.1h0.2c0.9,0,1.6,0.1,2.6,0.1c1,0,1.6-0.1,2.5-0.1
		c0.6-0.1,1,0,1.6,0c0.5,0,0.9,0,1.4,0h0.5c0.2,0,0.7-0.1,1.3,0.4c0.2,0.2,0.3,0.4,0.4,0.5c0.2,0.3,0.4,1.4,0.4,2.4
		c0,0.4,0,0.7-0.1,1.1v0.8c0,0.4,0,0.7-0.1,1.1c0,0.7,0.1,1.4,0.2,1.5c0.1,0.6,0.1,1,0.1,1.6c0,1.4-0.1,2.4-0.1,3.8
		C125.6,47.6,125.6,48.6,126.5,48.6L126.5,48.6z"/>
</g>
</svg>
