<?xml version="1.0" encoding="utf-8"?>
<!-- Generator: Adobe Illustrator 19.2.1, SVG Export Plug-In . SVG Version: 6.00 Build 0)  -->
<svg version="1.1" id="Layer_1" xmlns="http://www.w3.org/2000/svg" xmlns:xlink="http://www.w3.org/1999/xlink" x="0px" y="0px"
	 viewBox="0 0 192 50.7" style="enable-background:new 0 0 192 50.7;" xml:space="preserve">
<style type="text/css">
	.st0{fill:#010101;}
</style>
<g>
	<g>
		<path class="st0" d="M5.6,21.2H0.4C0.2,21.2,0,21,0,20.8V0.7c0-0.2,0.1-0.4,0.4-0.4h5.2c3,0,5.5,2.5,5.5,5.7v9.6
			C11,18.7,8.6,21.2,5.6,21.2 M8.1,6.3c0-1.9-1.5-3.4-3.3-3.4H4.1c-0.6,0-1.1,0.5-1.1,1.1v13.4c0,0.6,0.5,1.2,1.1,1.2h0.8
			c1.8,0,3.3-1.5,3.3-3.4V6.3z"/>
		<path class="st0" d="M23.8,21.2H15c-0.2,0-0.4-0.2-0.4-0.4V0.7c0-0.2,0.1-0.4,0.4-0.4h8.6c0.2,0,0.4,0.2,0.4,0.4v1.9
			c0,0.2-0.2,0.4-0.4,0.4h-4.9c-0.7,0-1.1,0.5-1.1,1.1v3.7c0,0.7,0.6,1.1,1.1,1.1h3.7c0.2,0,0.4,0.2,0.4,0.4v1.8
			c0,0.2-0.2,0.4-0.4,0.4h-3.7c-0.6,0-1.1,0.5-1.1,1.1v4.6c0,0.6,0.5,1.1,1.1,1.1h5.2c0.2,0,0.4,0.2,0.4,0.4v2
			C24.2,21,24,21.2,23.8,21.2"/>
		<path class="st0" d="M31.8,21.5c-2.8,0-4.5-1.5-5.5-3.9c-0.2-0.6-0.4-1.2-0.5-1.5c-0.1-0.2,0-0.4,0.2-0.4l1.9-0.7
			c0.2-0.1,0.4,0,0.4,0.2c0.3,1,1.2,3.7,3.4,3.7c1.7,0,2.7-1.1,2.7-2.7c0-3.9-8.2-6.3-8.2-11.1c0-3.3,2.4-5,5.1-5
			c2.9,0,4.6,2,5.4,4.6c0.1,0.2,0,0.3-0.2,0.4l-1.7,0.6c-0.1,0.1-0.4,0-0.4-0.2c-0.1-0.2-0.2-0.5-0.4-0.8c-0.5-1.1-1.4-2.3-2.7-2.3
			c-1.4,0-2.4,1.4-2.4,2.7c0,3.2,8.5,5.9,8.5,11.1C37.4,19.5,35.1,21.5,31.8,21.5"/>
		<path class="st0" d="M43.2,21.2H41c-0.2,0-0.4-0.2-0.4-0.4V0.7c0-0.2,0.2-0.4,0.3-0.4h2.2c0.2,0,0.4,0.2,0.4,0.4v20.1
			C43.5,21,43.4,21.2,43.2,21.2"/>
		<path class="st0" d="M58.2,21.2h-0.4c-0.3,0-0.3-0.3-0.4-0.6l-0.1-0.3c-0.4-1.2-0.8-0.8-1.3-0.1c-0.6,0.8-1.6,1.3-2.7,1.3h-0.5
			c-3.4,0-5.5-2.6-5.5-5.8v-10c0-3.1,2.4-5.7,5.5-5.7H53c3,0,5.4,2.6,5.4,5.7v0.9c0,0.2-0.2,0.4-0.4,0.4h-2c-0.2,0-0.4-0.3-0.4-0.4
			V6.3c0-1.8-1.2-3.4-2.7-3.4c-1.5,0-2.7,1.6-2.7,3.4v9c0,1.8,0.9,3.4,2.7,3.4c2.1,0,3-1.6,3-3.4v-0.9c0-0.6-0.5-1.1-1.1-1.1h-1.1
			c-0.2,0-0.4-0.2-0.4-0.4v-1.4c0-0.2,0.2-0.4,0.4-0.4h4.4c0.2,0,0.4,0.2,0.4,0.4v9.4C58.6,21,58.4,21.2,58.2,21.2"/>
		<path class="st0" d="M73.4,21.2h-2c-0.2,0-0.3,0-0.4-0.4L66,9.2c-0.4-0.8-1.1-0.4-1.1,0.2v11.4c0,0.2-0.1,0.3-0.4,0.3h-2.1
			c-0.2,0-0.3-0.1-0.3-0.3V0.6c0-0.2,0.1-0.4,0.3-0.4h2.1c0.2,0,0.4,0.2,0.6,0.5L69.9,12c0.3,0.7,1.1,0.9,1.1-0.3v-11
			c0-0.2,0.2-0.4,0.4-0.4h2c0.2,0,0.4,0.2,0.4,0.4v20.2C73.8,21,73.6,21.2,73.4,21.2"/>
		<path class="st0" d="M94.3,2.8h-3.2c-0.6,0-1.1,0.5-1.1,1.1v16.9c0,0.2-0.1,0.3-0.3,0.3h-2.1c-0.2,0-0.4-0.1-0.4-0.3V3.9
			c0-0.5-0.4-1.1-1-1.1H83c-0.2,0-0.4-0.1-0.4-0.3V0.6c0-0.2,0.1-0.3,0.3-0.3h11.3c0.2,0,0.4,0.2,0.4,0.3v1.8
			C94.6,2.6,94.5,2.8,94.3,2.8"/>
		<path class="st0" d="M108.1,21.2h-2.3c-0.1,0-0.2-0.1-0.4-0.5l-2.7-7.9c-0.1-0.4-0.4-0.8-0.8-0.8h-1.1c-0.6,0-1,0.5-1,1.1v7.7
			c0,0.2-0.2,0.3-0.3,0.3h-2.1c-0.2,0-0.3-0.1-0.3-0.3V0.6c0-0.2,0.1-0.3,0.3-0.3h5.3c2.9,0,5.3,2.1,5.3,5.3v1c0,2.1-1,3.6-2.5,4.6
			c-0.2,0.1-0.3,0.3-0.2,0.5c0,0.1,0,0.2,0.1,0.3l3.1,8.9C108.3,21.1,108.2,21.2,108.1,21.2 M105.2,5.4c0-1.4-1.1-2.5-2.5-2.5h-2
			c-0.6,0-1,0.6-1,1.1v4.5c0,0.6,0.6,1.1,1,1.1h2c1.3,0,2.5-1,2.5-2.5L105.2,5.4L105.2,5.4z"/>
		<path class="st0" d="M117.2,21.5h-0.6c-2.9,0-5.4-2.5-5.4-5.5V0.6c0-0.1,0.1-0.3,0.3-0.3h2.2c0.2,0,0.3,0.2,0.3,0.3v15
			c0,1.7,1.3,3.3,2.8,3.3c1.5,0,2.8-1.5,2.8-3.3v-15c0-0.1,0.1-0.3,0.3-0.3h2.2c0.2,0,0.4,0.2,0.4,0.3V16
			C122.5,19,120.1,21.5,117.2,21.5"/>
		<path class="st0" d="M131.4,21.5c-2.8,0-4.5-1.5-5.5-3.9c-0.2-0.6-0.4-1.2-0.5-1.5c-0.1-0.2,0-0.4,0.2-0.4l1.9-0.7
			c0.2-0.1,0.4,0,0.4,0.2c0.3,1,1.2,3.7,3.4,3.7c1.7,0,2.7-1.1,2.7-2.7c0-3.9-8.2-6.3-8.2-11.1c0-3.3,2.4-5,5.1-5
			c2.9,0,4.6,2,5.4,4.6c0.1,0.2,0,0.3-0.2,0.4l-1.7,0.6c-0.1,0.1-0.4,0-0.4-0.2c-0.1-0.2-0.2-0.5-0.3-0.8c-0.5-1.1-1.4-2.3-2.7-2.3
			c-1.4,0-2.4,1.4-2.4,2.7c0,3.2,8.5,5.9,8.5,11.1C137,19.5,134.7,21.5,131.4,21.5"/>
		<path class="st0" d="M149.8,2.8h-3.2c-0.6,0-1.1,0.5-1.1,1.1v16.9c0,0.2-0.1,0.3-0.3,0.3h-2.1c-0.2,0-0.4-0.1-0.4-0.3V3.9
			c0-0.5-0.4-1.1-1-1.1h-3.2c-0.2,0-0.4-0.1-0.4-0.3V0.6c0-0.2,0.1-0.3,0.3-0.3h11.3c0.2,0,0.4,0.2,0.4,0.3v1.8
			C150.2,2.6,150,2.8,149.8,2.8"/>
		<path class="st0" d="M9,32.1H4c-0.6,0-1.1,0.5-1.1,1.1v3.7C2.9,37.6,3.4,38,4,38h3.8c0.2,0,0.4,0.2,0.4,0.4v1.8
			c0,0.2-0.2,0.4-0.4,0.4H4c-0.6,0-1.1,0.5-1.1,1.1v8.1c0,0.2-0.2,0.4-0.4,0.4H0.4c-0.2,0-0.4-0.2-0.4-0.4V29.8
			c0-0.2,0.2-0.4,0.4-0.4H9c0.2,0,0.4,0.2,0.4,0.4v1.9C9.4,31.9,9.2,32.1,9,32.1"/>
		<path class="st0" d="M18,50.6h-0.8c-2.9,0-5.2-2.4-5.2-5.5V34.5c0-3,2.3-5.4,5.2-5.4H18c2.9,0,5.2,2.4,5.2,5.4v10.6
			C23.2,48.2,20.9,50.6,18,50.6 M20.2,35.2c0-1.7-1.1-3.3-2.6-3.3c-1.5,0-2.7,1.5-2.7,3.3v9.4c0,1.7,1.2,3.2,2.6,3.2
			c1.5,0,2.6-1.5,2.6-3.2L20.2,35.2z"/>
		<path class="st0" d="M37.8,50.3h-2.3c-0.1,0-0.2-0.1-0.4-0.5L32.5,42c-0.1-0.4-0.4-0.8-0.8-0.8h-1.1c-0.6,0-1,0.5-1,1.1V50
			c0,0.2-0.2,0.3-0.3,0.3H27c-0.2,0-0.3-0.1-0.3-0.3V29.8c0-0.2,0.1-0.3,0.3-0.3h5.3c2.9,0,5.3,2.1,5.3,5.3v1.1c0,2.1-1,3.6-2.5,4.6
			c-0.2,0.1-0.3,0.4-0.2,0.5c0,0.1,0,0.2,0.1,0.3l3.1,8.9C38.1,50.2,38,50.3,37.8,50.3 M35,34.5c0-1.4-1.1-2.5-2.5-2.5h-2
			c-0.6,0-1,0.6-1,1.1v4.5c0,0.6,0.6,1.1,1,1.1h2c1.3,0,2.5-1,2.5-2.5V34.5z"/>
		<path class="st0" d="M53.3,41.5h-1.8c-0.6,0-1.1,0.5-1.1,1.1V50c0,0.2-0.1,0.3-0.4,0.3h-2.2c-0.2,0-0.3-0.1-0.3-0.3V29.8
			c0-0.2,0.1-0.3,0.3-0.3h5.5c2.9,0,5.2,2.4,5.2,5.4v1.2C58.5,39.1,56.2,41.5,53.3,41.5 M55.5,34.6c0-1.4-1.1-2.5-2.5-2.5h-1.4
			c-0.5,0-1.1,0.4-1.1,1.1v4.8c0,0.7,0.6,1,1.1,1H53c1.4,0,2.5-1.1,2.5-2.5L55.5,34.6z"/>
		<path class="st0" d="M67.1,50.6h-0.6c-2.9,0-5.4-2.5-5.4-5.5V29.8c0-0.1,0.1-0.3,0.3-0.3h2.2c0.2,0,0.3,0.2,0.3,0.3v15
			c0,1.7,1.3,3.3,2.8,3.3c1.5,0,2.8-1.5,2.8-3.3v-15c0-0.1,0.1-0.3,0.3-0.3H72c0.2,0,0.4,0.2,0.4,0.3v15.4
			C72.4,48.2,70,50.6,67.1,50.6"/>
		<path class="st0" d="M81.3,50.3h-5c-0.2,0-0.4-0.2-0.4-0.4V29.8c0-0.2,0.2-0.4,0.4-0.4h4.5c3.9,0,5.9,2.2,5.9,5.2
			c0,1.7-0.6,2.9-1.7,3.8c-0.4,0.3-0.7,0.9,0,1.4c1.5,1,2.4,2.7,2.4,4.6C87.3,47.6,84.7,50.3,81.3,50.3 M81,40.6h-1
			c-0.6,0-1.1,0.5-1.1,1.1v4.8c0,0.6,0.5,1.1,1.1,1.1h1.4c1.6,0,2.7-1.6,2.7-3.4C84,42.4,82.5,40.6,81,40.6z M81.1,32.2H80
			c-0.6,0-1.1,0.5-1.1,1.1V37c0,0.6,0.5,1.1,1.1,1.1H81c1.5,0,2.6-1.6,2.6-3.1C83.7,33.5,82.5,32.2,81.1,32.2z"/>
		<path class="st0" d="M99.6,50.3h-8.8c-0.2,0-0.3-0.1-0.3-0.3V29.8c0-0.2,0.1-0.3,0.3-0.3h2.3c0.3,0,0.4,0.1,0.4,0.3v16.8
			c0,0.6,0.5,1.1,1,1.1h5c0.1,0,0.3,0.1,0.3,0.4v2C99.9,50.2,99.8,50.3,99.6,50.3"/>
		<path class="st0" d="M104.8,50.3h-2.2c-0.2,0-0.4-0.2-0.4-0.4V29.8c0-0.2,0.2-0.4,0.3-0.4h2.2c0.2,0,0.4,0.2,0.4,0.4v20.1
			C105.2,50.2,105,50.3,104.8,50.3"/>
		<path class="st0" d="M114.4,50.6h-0.2c-3,0-5.5-2.6-5.5-5.7V34.8c0-3.1,2.5-5.7,5.5-5.7h0.2c3,0,5.4,2.5,5.4,5.7v0.9
			c0,0.2-0.2,0.4-0.4,0.4h-2.2c-0.2,0-0.4-0.2-0.4-0.4v-0.3c0-1.7-1-3.4-2.5-3.4c-1.5,0-2.7,1.6-2.7,3.4v9.1c0,1.8,1.1,3.4,2.7,3.4
			c1.5,0,2.7-1.6,2.7-3.4v-0.7c0-0.3,0.1-0.4,0.3-0.4h2.2c0.2,0,0.4,0.1,0.4,0.4V45C119.8,48.1,117.4,50.6,114.4,50.6"/>
		<path class="st0" d="M134.7,50.7c-2.8,0-4.5-1.5-5.5-3.9c-0.2-0.6-0.4-1.2-0.5-1.5c-0.1-0.2,0-0.3,0.2-0.4l1.9-0.7
			c0.2-0.1,0.4,0,0.4,0.2c0.3,1,1.2,3.7,3.4,3.7c1.7,0,2.7-1.1,2.7-2.7c0-3.9-8.2-6.3-8.2-11.1c0-3.3,2.4-5,5.1-5
			c2.9,0,4.6,2,5.4,4.6c0.1,0.2,0,0.4-0.2,0.4l-1.7,0.6c-0.1,0.1-0.3,0-0.4-0.2c-0.1-0.2-0.2-0.5-0.4-0.8c-0.5-1.1-1.4-2.3-2.7-2.3
			c-1.4,0-2.4,1.4-2.4,2.7c0,3.2,8.5,5.9,8.5,11.1C140.2,48.7,137.9,50.7,134.7,50.7"/>
		<path class="st0" d="M148.3,41.5h-1.8c-0.6,0-1.1,0.5-1.1,1.1V50c0,0.2-0.1,0.3-0.3,0.3h-2.2c-0.2,0-0.3-0.1-0.3-0.3V29.8
			c0-0.2,0.1-0.3,0.3-0.3h5.5c2.9,0,5.2,2.4,5.2,5.4v1.2C153.5,39.1,151.2,41.5,148.3,41.5 M150.5,34.6c0-1.4-1.1-2.5-2.5-2.5h-1.4
			c-0.5,0-1.1,0.4-1.1,1.1v4.8c0,0.7,0.6,1,1.1,1h1.4c1.4,0,2.5-1.1,2.5-2.5V34.6z"/>
		<path class="st0" d="M166,50.3h-2.3c-0.1,0-0.3-0.1-0.3-0.5l-0.6-3.2c-0.1-0.5-0.4-1-1-1h-3.2c-0.6,0-1,0.5-1.1,1l-0.6,3.2
			c0,0.3-0.2,0.5-0.4,0.5h-2.3c-0.1,0-0.3-0.1-0.2-0.3l3.8-20.1c0.1-0.3,0.2-0.4,0.4-0.4h3.7c0.1,0,0.3,0.1,0.4,0.5l4.1,20.1
			C166.3,50.2,166.2,50.3,166,50.3 M160.5,34.5c-0.2-1.2-1.1-1.2-1.3,0l-1.1,7.1c-0.1,0.6,0.3,1.2,1,1.2h1.7c0.6,0,1.1-0.6,1-1.2
			L160.5,34.5z"/>
		<path class="st0" d="M174.1,50.6h-0.2c-3,0-5.5-2.6-5.5-5.7V34.8c0-3.1,2.5-5.7,5.5-5.7h0.2c3,0,5.4,2.5,5.4,5.7v0.9
			c0,0.2-0.2,0.4-0.4,0.4H177c-0.2,0-0.4-0.2-0.4-0.4v-0.3c0-1.7-1-3.4-2.5-3.4s-2.7,1.6-2.7,3.4v9.1c0,1.8,1.1,3.4,2.7,3.4
			c1.5,0,2.7-1.6,2.7-3.4v-0.7c0-0.3,0.1-0.4,0.3-0.4h2.2c0.2,0,0.4,0.1,0.4,0.4V45C179.6,48.1,177.1,50.6,174.1,50.6"/>
		<path class="st0" d="M191.6,50.3h-8.8c-0.2,0-0.4-0.2-0.4-0.4V29.8c0-0.2,0.1-0.4,0.4-0.4h8.6c0.2,0,0.4,0.2,0.4,0.4v1.9
			c0,0.2-0.2,0.4-0.4,0.4h-4.9c-0.7,0-1.1,0.5-1.1,1.1v3.7c0,0.7,0.6,1.1,1.1,1.1h3.7c0.2,0,0.4,0.2,0.4,0.4v1.8
			c0,0.2-0.2,0.4-0.4,0.4h-3.7c-0.6,0-1.1,0.5-1.1,1.1v4.6c0,0.6,0.5,1.1,1.1,1.1h5.2c0.2,0,0.4,0.2,0.4,0.4v2
			C192,50.1,191.8,50.3,191.6,50.3"/>
	</g>
</g>
</svg>
