<?xml version="1.0" encoding="utf-8"?>
<!-- Generator: Adobe Illustrator 19.2.1, SVG Export Plug-In . SVG Version: 6.00 Build 0)  -->
<svg version="1.1" id="Layer_1" xmlns="http://www.w3.org/2000/svg" xmlns:xlink="http://www.w3.org/1999/xlink" x="0px" y="0px"
	 viewBox="0 0 194.6 67.3" style="enable-background:new 0 0 194.6 67.3;" xml:space="preserve">
<style type="text/css">
	.st0{fill-rule:evenodd;clip-rule:evenodd;fill:#010101;}
</style>
<path class="st0" d="M193,25c1-0.4,1.1-0.5,0.7-1.6c-2.2-6.1-10.3-9.5-17.2-6.6c-5.4,2.3-9.4,8-9.4,14.5c0,8.7,6.3,16.4,14.8,16.4
	c3.9,0,6.7-0.5,9.1-2.1c0.5-0.5,3.5-2.9,3.5-3.4c0-0.1-0.4,0.3-1.1,0.6c-1.9,1-4.8,1.4-7.1,1.4c-4.6,0.1-8.2-3-10.6-6.7
	c-1.5-2.4-2.5-5.1-2.8-8c-0.4-4.5,0.7-9.7,5.8-10.9c3.4-0.8,6.6,1,7.8,4.3c0.6,1.5,0.2,2.2-1.1,2.8l-12.2,5.1l4.2,0.3
	C182.5,29,188.1,27.1,193,25L193,25z"/>
<path class="st0" d="M155.5,0c3.1,0,6,0,9.1,0c-1.3,0.8-1.7,1.2-2.2,2c-0.4,0.6-0.5,1.8-0.6,2.8c-0.5,12.2-0.2,24.4-0.3,36.6
	c0.1,3.3,1.4,2.9,5.7,2.8c-0.7,0.6-1.7,1.6-2.5,2.1c-3.9,0-7.6-0.1-11.5-0.1c1.5-1.5,2.2-2.5,2.1-6.3c0.1-12.7-0.4-24.9,0.3-37.2
	c-1.8,0.1-3.5,0-5.3,0.1C152,2,153.6,0.8,155.5,0L155.5,0z"/>
<path class="st0" d="M139,48.4c0.7,0.5,1.3,0.9,2,1.4c3.8,2.4,5,5.4,4.7,8.1c-0.4,3.3-3.5,5.9-9,6.2c-5.8,0.4-13.6-1.9-12.1-9.5
	c0.8-4.1,6.1-6.1,10.6-6.3C136.5,48.3,137.8,48.4,139,48.4L139,48.4z M152.1,16.8l-3.9,2.5h-4.4c1.9,1.3,3.3,3.2,4.1,5.3
	c0.8,2.2,1,4.7,0.1,7c-0.8,2.2-2.4,4-4.9,5.4c-1.4,0.8-2.1,1.8-2.1,2.8c-0.2,2.8,3.2,4.9,5.3,6.4c4.4,3.3,6.1,8.7,3.2,13.9
	c-2.8,5-9.4,7.2-16.4,7.2c-8.7,0-14.2-4-14.5-9.5c-0.4-7,6.8-10.4,13.4-11.1c1.8-0.2,3.5-0.2,5-0.1c-2.3-1.5-3.2-4.6-2-6.7
	c0.3-0.5,0.1-0.4-0.5-0.3c-5.3,0.8-10.8-2.7-12.1-7.9c-0.7-2.7-0.2-5.5,0.8-7.6c2.2-4.7,7.1-7.4,12.6-7.4
	C141.3,16.7,146.5,16.7,152.1,16.8L152.1,16.8z M142.3,28.3c0.7,4.2-0.4,8.2-4.2,9.3c-3.9,1.1-8.2-2-9.6-7.4
	c-1.5-6,0.1-9.7,3.7-10.9C136.6,18,141.2,21.9,142.3,28.3L142.3,28.3z"/>
<path class="st0" d="M102.5,15.9c10.5,0,15.9,6.9,16.4,15.1c0.5,8.1-6.2,15.4-14.4,16.2c-9.8,1-18.4-5.7-18.4-15.6
	C86.1,23,93.5,15.9,102.5,15.9L102.5,15.9z M112.4,32c0.6,6-1.4,11.5-6.8,12.7c-5.5,1.3-11.3-3.3-12.7-11c-1.6-8.5,1-14,6.2-15.4
	C105.2,16.7,111.5,22.9,112.4,32L112.4,32z"/>
<path class="st0" d="M66.7,15.9c10.6,0,16.1,6.9,16.6,15.1c0.5,8.1-6.3,15.4-14.6,16.2c-10,1-18.7-5.7-18.7-15.6
	C50.1,23,57.5,15.9,66.7,15.9L66.7,15.9z M76.7,32c0.6,6-1.4,11.5-6.8,12.7c-5.5,1.3-11.4-3.3-12.9-11c-1.6-8.5,1.1-14,6.3-15.4
	C69.4,16.7,75.8,22.9,76.7,32L76.7,32z"/>
<path class="st0" d="M40.4,11.6l4.8-4.8C37.1,0,23.2-0.9,14.1,3.8c-8,4-13.8,12-14.1,21c-0.3,9.4,5.2,16.9,10.7,20.6
	c9.2,6.2,25.1,4.8,34.6,0l0-0.9h0v-9.9l2.2-2.6H33.7l-5.2,2.9l10-0.3c0,2.8,0,5.9,0,8.7c0,1.2,0,1.4-2,2.1c-2.9,0.8-6.1,0.9-9,0.7
	C17.4,45.2,9.8,37.3,8,27.4C6.3,18,10.7,9.2,18.2,5.5c3.6-1.8,8-2.6,12.8-1.1c3,1,5.7,2.7,8,5l-1.6,3L40.4,11.6L40.4,11.6z"/>
</svg>
