<?xml version="1.0" encoding="utf-8"?>
<!-- Generator: Adobe Illustrator 19.2.1, SVG Export Plug-In . SVG Version: 6.00 Build 0)  -->
<svg version="1.1" id="Layer_1" xmlns="http://www.w3.org/2000/svg" xmlns:xlink="http://www.w3.org/1999/xlink" x="0px" y="0px"
	 viewBox="0 0 196 86.6" style="enable-background:new 0 0 196 86.6;" xml:space="preserve">
<style type="text/css">
	.st0{fill:#010101;}
	.st1{fill-rule:evenodd;clip-rule:evenodd;fill:#010101;}
</style>
<g>
	<path class="st0" d="M35.9,80.9c0-0.8,0-2.4-0.3-2.8c-0.1-0.2-0.3-0.3-0.7-0.3l-0.3,0c-0.1-0.1-0.1-0.3,0-0.3c0.5,0,1,0,1.5,0
		c0.6,0,0.9,0,1.4,0c0.1,0.1,0.1,0.2,0,0.3l-0.3,0c-0.3,0-0.6,0.1-0.7,0.3c-0.2,0.4-0.2,2-0.2,2.8v1.5c0,1.2-0.2,2.4-0.9,3.2
		c-0.6,0.6-1.6,1-2.6,1c-0.9,0-1.9-0.2-2.5-0.7c-0.7-0.6-1.1-1.6-1.1-3.2v-3.2c0-1.4,0-1.6-0.8-1.7l-0.3,0c-0.1-0.1-0.1-0.3,0-0.3
		c0.7,0,1.1,0,1.7,0c0.6,0,1,0,1.7,0c0.1,0,0.1,0.3,0,0.3l-0.3,0c-0.8,0.1-0.8,0.3-0.8,1.7v2.9c0,2.2,0.7,3.6,2.7,3.6
		c2,0,2.7-1.5,2.7-3.6V80.9z"/>
	<path class="st0" d="M53.5,84.1c0,0.4,0,2,0,2.4c0,0.1-0.1,0.1-0.3,0.1c-0.2-0.2-0.6-0.7-1.7-2L48.5,81c-0.4-0.4-1.3-1.5-1.6-1.8h0
		c-0.1,0.2-0.1,0.5-0.1,0.9V83c0,0.6,0,2.4,0.2,2.8c0.1,0.1,0.4,0.2,0.7,0.3l0.4,0c0.1,0.1,0.1,0.3,0,0.3c-0.6,0-1.1,0-1.6,0
		c-0.6,0-0.9,0-1.4,0c-0.1-0.1-0.1-0.3,0-0.3l0.4,0c0.3,0,0.5-0.1,0.6-0.3c0.2-0.5,0.2-2.1,0.2-2.8v-3.9c0-0.4,0-0.7-0.3-1
		c-0.2-0.2-0.5-0.3-0.8-0.3l-0.2,0c-0.1-0.1-0.1-0.3,0-0.3c0.6,0,1.3,0,1.5,0c0.2,0,0.4,0,0.6,0c0.3,0.7,1.9,2.5,2.3,3l1.3,1.5
		c0.9,1,1.6,1.8,2.2,2.4h0C53,84.2,53,84,53,83.7v-2.9c0-0.6,0-2.4-0.3-2.8c-0.1-0.1-0.3-0.2-0.8-0.3l-0.2,0c-0.1-0.1-0.1-0.3,0-0.3
		c0.6,0,1.1,0,1.6,0c0.6,0,0.9,0,1.4,0c0.1,0.1,0.1,0.3,0,0.3l-0.2,0c-0.4,0.1-0.7,0.2-0.8,0.3c-0.2,0.5-0.2,2.2-0.2,2.8V84.1z"/>
	<path class="st0" d="M63.6,79.5c0-1.4,0-1.7-0.8-1.7l-0.3,0c-0.1-0.1-0.1-0.3,0-0.3c0.7,0,1.1,0,1.7,0c0.5,0,1,0,1.7,0
		c0.1,0,0.1,0.3,0,0.3l-0.3,0c-0.8,0.1-0.8,0.3-0.8,1.7v4.8c0,1.4,0,1.6,0.8,1.7l0.3,0c0.1,0.1,0.1,0.3,0,0.3c-0.7,0-1.1,0-1.7,0
		c-0.6,0-1,0-1.7,0c-0.1,0-0.1-0.3,0-0.3l0.3,0c0.8-0.1,0.8-0.3,0.8-1.7V79.5z"/>
	<path class="st0" d="M74.5,78.9c-0.3-0.8-0.5-1-1.1-1.1l-0.2,0c-0.1-0.1-0.1-0.3,0-0.3c0.4,0,0.8,0,1.4,0c0.6,0,1.1,0,1.6,0
		c0.1,0.1,0.1,0.3,0,0.3l-0.2,0c-0.5,0.1-0.6,0.1-0.6,0.3c0,0.1,0.3,0.9,0.7,1.9c0.6,1.6,1.2,3.1,1.9,4.7c0.4-0.9,1-2.3,1.3-3
		c0.4-0.9,1-2.4,1.3-3c0.1-0.3,0.1-0.4,0.1-0.5c0-0.1-0.1-0.2-0.6-0.3l-0.2,0c-0.1-0.1-0.1-0.3,0-0.3c0.4,0,0.9,0,1.4,0
		c0.4,0,0.9,0,1.3,0c0.1,0.1,0.1,0.3,0,0.3l-0.4,0c-0.3,0-0.5,0.2-0.7,0.5c-0.4,0.6-0.9,1.7-1.5,3.1L79.3,83
		c-0.5,1.2-1.2,2.8-1.4,3.5c0,0-0.1,0-0.1,0c-0.1,0-0.1,0-0.2,0c-0.1-0.6-0.4-1.2-0.6-1.8L74.5,78.9z"/>
	<path class="st0" d="M90.8,79.5c0-1.4,0-1.6-0.8-1.7l-0.2,0c-0.1-0.1-0.1-0.3,0-0.3c0.6,0,1,0,1.6,0h2.5c0.9,0,1.7,0,1.8,0
		c0.1,0.2,0.2,1.2,0.2,1.8c-0.1,0.1-0.3,0.1-0.3,0c-0.2-0.6-0.3-1.1-1-1.3c-0.3-0.1-0.7-0.1-1.3-0.1h-1c-0.4,0-0.4,0-0.4,0.5v2.7
		c0,0.4,0,0.4,0.4,0.4h0.8c0.6,0,1,0,1.1-0.1c0.2-0.1,0.3-0.1,0.3-0.5l0.1-0.6c0.1-0.1,0.3-0.1,0.3,0c0,0.3-0.1,0.9-0.1,1.4
		c0,0.5,0.1,1,0.1,1.3c-0.1,0.1-0.3,0.1-0.3,0l-0.1-0.5c-0.1-0.2-0.1-0.4-0.4-0.5c-0.2-0.1-0.5-0.1-1-0.1h-0.8c-0.4,0-0.4,0-0.4,0.4
		v1.9c0,0.7,0,1.2,0.3,1.4c0.2,0.2,0.4,0.3,1.6,0.3c1,0,1.4-0.1,1.7-0.2c0.2-0.1,0.6-0.6,1-1.3c0.1-0.1,0.3,0,0.3,0.1
		c-0.1,0.5-0.4,1.5-0.6,1.9c-1.2,0-2.4,0-3.6,0h-1.2c-0.6,0-1,0-1.8,0c-0.1,0-0.1-0.3,0-0.3l0.4,0c0.8-0.1,0.8-0.3,0.8-1.7V79.5z"/>
	<path class="st0" d="M105.4,79.5c0-1.3,0-1.5-0.6-1.6l-0.4-0.1c-0.1-0.1-0.1-0.3,0-0.3c0.8-0.1,1.7-0.1,3-0.1
		c0.8,0,1.6,0.1,2.3,0.4c0.6,0.3,1.1,0.9,1.1,1.9c0,1.3-1,2-1.7,2.3c-0.1,0.1,0,0.2,0.1,0.3c1.1,1.7,1.8,2.8,2.7,3.6
		c0.2,0.2,0.6,0.4,0.9,0.4c0.1,0,0.1,0.1,0,0.2c-0.1,0-0.3,0.1-0.6,0.1c-1.1,0-1.8-0.3-2.8-1.7c-0.4-0.5-0.9-1.4-1.3-2
		c-0.2-0.3-0.4-0.4-1-0.4c-0.6,0-0.6,0-0.6,0.3v1.7c0,1.4,0,1.6,0.8,1.7l0.3,0c0.1,0.1,0.1,0.3,0,0.3c-0.6,0-1.1,0-1.6,0
		c-0.6,0-1.1,0-1.7,0c-0.1,0-0.1-0.2,0-0.3l0.3,0c0.8-0.1,0.8-0.3,0.8-1.7V79.5z M106.5,81.4c0,0.2,0,0.4,0,0.4c0,0,0.2,0.1,0.9,0.1
		c0.5,0,1-0.1,1.4-0.4c0.4-0.3,0.7-0.8,0.7-1.7c0-1.1-0.7-2.1-2.2-2.1c-0.8,0-0.9,0.1-0.9,0.4V81.4z"/>
	<path class="st0" d="M121.7,86.6c-1.1,0-1.8-0.4-2.1-0.5c-0.2-0.3-0.3-1.3-0.4-1.9c0.1-0.1,0.3-0.1,0.3,0c0.2,0.7,0.8,2,2.3,2
		c1.1,0,1.7-0.7,1.7-1.6c0-0.6-0.1-1.3-1.1-1.9l-1.3-0.8c-0.7-0.4-1.5-1.2-1.5-2.3c0-1.3,1-2.3,2.8-2.3c0.4,0,0.9,0.1,1.3,0.2
		c0.2,0.1,0.4,0.1,0.5,0.1c0.1,0.3,0.2,1.1,0.2,1.6c-0.1,0.1-0.3,0.1-0.3,0c-0.2-0.6-0.5-1.5-1.8-1.5c-1.3,0-1.6,0.9-1.6,1.5
		c0,0.8,0.6,1.3,1.1,1.7l1.1,0.7c0.9,0.5,1.7,1.3,1.7,2.6C124.6,85.6,123.4,86.6,121.7,86.6"/>
	<path class="st0" d="M133.7,79.5c0-1.4,0-1.7-0.8-1.7l-0.3,0c-0.1-0.1-0.1-0.3,0-0.3c0.7,0,1.1,0,1.7,0c0.5,0,1,0,1.7,0
		c0.1,0,0.1,0.3,0,0.3l-0.3,0c-0.8,0.1-0.8,0.3-0.8,1.7v4.8c0,1.4,0,1.6,0.8,1.7l0.3,0c0.1,0.1,0.1,0.3,0,0.3c-0.7,0-1.1,0-1.7,0
		c-0.6,0-1,0-1.7,0c-0.1,0-0.1-0.3,0-0.3l0.3,0c0.8-0.1,0.8-0.3,0.8-1.7V79.5z"/>
	<path class="st0" d="M148.7,84.4c0,1.4,0,1.6,0.8,1.7l0.4,0c0.1,0.1,0.1,0.3,0,0.3c-0.8,0-1.2,0-1.8,0c-0.5,0-1,0-1.9,0
		c-0.1,0-0.1-0.3,0-0.3l0.5,0c0.8-0.1,0.8-0.3,0.8-1.7v-6c0-0.4,0-0.4-0.4-0.4h-0.7c-0.6,0-1.3,0-1.7,0.3c-0.3,0.3-0.5,0.6-0.6,0.9
		c-0.1,0.1-0.3,0-0.4-0.1c0.2-0.6,0.4-1.5,0.5-2c0,0,0.2,0,0.3,0c0.1,0.4,0.5,0.4,1.1,0.4h5.5c0.7,0,0.8,0,1.1-0.4
		c0.1,0,0.2,0,0.2,0c-0.1,0.6-0.2,1.6-0.2,2.1c-0.1,0.1-0.3,0.1-0.4,0c0-0.3-0.1-0.8-0.3-1c-0.3-0.2-0.8-0.3-1.6-0.3h-1
		c-0.4,0-0.4,0-0.4,0.5V84.4z"/>
	<path class="st0" d="M164.1,84.3c0,1.4,0.1,1.7,0.8,1.7l0.5,0c0.1,0.1,0.1,0.3,0,0.3c-0.8,0-1.3,0-1.8,0c-0.6,0-1.1,0-1.8,0
		c-0.1,0-0.1-0.3,0-0.3l0.4,0c0.8-0.1,0.8-0.3,0.8-1.7v-0.7c0-0.7,0-0.9-0.4-1.7l-1.6-3.1c-0.5-0.9-0.7-1-1.1-1l-0.4-0.1
		c-0.1-0.1-0.1-0.3,0-0.3c0.4,0,0.9,0,1.6,0c0.6,0,1.1,0,1.4,0c0.1,0,0.1,0.3,0,0.3l-0.2,0c-0.5,0.1-0.6,0.1-0.6,0.2
		c0,0.1,0.4,0.9,0.4,1c0.5,1,1,2.1,1.5,3c0.4-0.7,0.9-1.5,1.3-2.3c0.4-0.7,0.9-1.6,0.9-1.8c0-0.1-0.2-0.2-0.6-0.2l-0.2,0
		c-0.1-0.1-0.1-0.3,0-0.3c0.5,0,0.9,0,1.3,0c0.4,0,0.8,0,1.3,0c0.1,0.1,0.1,0.3,0,0.3l-0.4,0.1c-0.7,0.1-1.1,1-1.8,2.1l-0.8,1.5
		c-0.6,1-0.6,1.1-0.6,2.2V84.3z"/>
	<path class="st1" d="M97.1,12.1c-5.9,0.1-11.9,0.7-17.6,1.9c2.5,16.1,12.6,24,17.6,26.7V12.1z M89.6,15.3c-3.5,0-6.4,2.9-6.4,6.4
		c0,3.5,2.9,6.4,6.4,6.4c3.5,0,6.4-2.9,6.4-6.4C96,18.2,93.2,15.3,89.6,15.3 M89.9,21.5h2.5c0-0.5-0.1-1-0.2-1.4
		c-0.8,0.1-1.5,0.2-2.3,0.2V21.5z M92,19.5c-0.2-0.5-0.4-1-0.6-1.4c-0.5,0.1-1,0.1-1.5,0.1v1.5C90.6,19.7,91.3,19.6,92,19.5
		 M91.1,17.6c-0.3-0.5-0.7-1-1.2-1.4v1.5C90.3,17.7,90.7,17.6,91.1,17.6 M91.7,17.5c0.5-0.1,1-0.2,1.5-0.4c-0.8-0.6-1.7-1-2.7-1.2
		C90.9,16.4,91.3,16.9,91.7,17.5 M88.1,17.6c0.4,0.1,0.8,0.1,1.2,0.1v-1.5C88.9,16.6,88.5,17.1,88.1,17.6 M88.7,15.9
		c-1,0.1-1.9,0.6-2.7,1.2c0.5,0.2,1,0.3,1.5,0.4C87.9,16.9,88.3,16.4,88.7,15.9 M87.8,18.1c-0.3,0.5-0.5,0.9-0.6,1.4
		c0.7,0.1,1.4,0.2,2.2,0.2v-1.5C88.8,18.2,88.3,18.2,87.8,18.1 M87,20.1c-0.1,0.5-0.2,0.9-0.2,1.4h2.5v-1.2
		C88.5,20.3,87.8,20.2,87,20.1 M86.5,19.9c-0.7-0.2-1.5-0.4-2.2-0.7c-0.3,0.7-0.5,1.4-0.5,2.2h2.5C86.3,21,86.3,20.4,86.5,19.9
		 M83.7,22c0,0.8,0.2,1.5,0.5,2.2c0.7-0.3,1.4-0.5,2.2-0.7c-0.1-0.5-0.2-1-0.2-1.5H83.7z M87,23.5c0.8-0.1,1.5-0.2,2.3-0.2V22h-2.5
		C86.8,22.5,86.9,23,87,23.5 M87.2,24c0.2,0.5,0.4,1,0.6,1.4c0.5-0.1,1-0.1,1.5-0.1v-1.5C88.6,23.8,87.9,23.9,87.2,24 M88.1,25.9
		c0.3,0.5,0.8,1,1.2,1.4v-1.5C88.9,25.8,88.5,25.9,88.1,25.9 M87.5,26c-0.5,0.1-1,0.2-1.5,0.4c0.8,0.6,1.7,1,2.7,1.2
		C88.3,27.1,87.9,26.6,87.5,26 M91.1,25.9c-0.4-0.1-0.8-0.1-1.2-0.1v1.5C90.3,26.9,90.7,26.4,91.1,25.9 M90.4,27.6
		c1-0.1,1.9-0.6,2.7-1.2c-0.5-0.2-1-0.3-1.5-0.4C91.3,26.6,90.9,27.1,90.4,27.6 M91.4,25.4c0.3-0.5,0.5-0.9,0.6-1.4
		c-0.7-0.1-1.4-0.2-2.2-0.2v1.5C90.4,25.3,90.9,25.3,91.4,25.4 M92.2,23.5c0.1-0.5,0.2-0.9,0.2-1.4h-2.5v1.2
		C90.7,23.2,91.4,23.3,92.2,23.5 M92.7,23.6c0.7,0.2,1.5,0.4,2.2,0.7c0.3-0.7,0.5-1.4,0.5-2.2h-2.5C92.9,22.5,92.8,23.1,92.7,23.6
		 M95.5,21.5c0-0.8-0.2-1.5-0.5-2.2c-0.7,0.3-1.5,0.5-2.2,0.7c0.1,0.5,0.2,1,0.2,1.5H95.5z M93.7,17.5c-0.5,0.2-1.1,0.4-1.7,0.5
		c0.2,0.5,0.4,0.9,0.6,1.4c0.7-0.2,1.4-0.4,2.1-0.6C94.4,18.3,94.1,17.9,93.7,17.5 M84.5,18.8c0.7,0.3,1.4,0.5,2.1,0.6
		c0.2-0.5,0.4-1,0.6-1.4c-0.6-0.1-1.1-0.3-1.7-0.5C85.2,17.9,84.8,18.3,84.5,18.8 M85.5,26c0.5-0.2,1.1-0.4,1.7-0.5
		c-0.2-0.5-0.4-0.9-0.6-1.4c-0.7,0.2-1.4,0.4-2.1,0.6C84.8,25.2,85.2,25.6,85.5,26 M94.7,24.7c-0.7-0.3-1.4-0.5-2.1-0.6
		c-0.2,0.5-0.4,1-0.6,1.4c0.6,0.1,1.1,0.3,1.7,0.5C94.1,25.6,94.4,25.2,94.7,24.7"/>
	<path class="st0" d="M78.9,6.2l0-3.3c0-0.4,0.3-0.8,0.7-0.9l0,0C85.6,0.7,91.7,0,98,0c6.3,0,12.4,0.7,18.3,1.9l0,0
		c0.4,0.1,0.8,0.5,0.8,0.9l0,3.3c0,2.2-0.1,4.2-0.4,6.2c-12.2-2.6-25.1-2.6-37.4,0C79.1,10.4,78.9,8.3,78.9,6.2 M98,2.8
		c-2.9-1.1-7-1.3-9.5-0.8l-1.1,0.8l-0.3,0c-0.1,0-0.2,0.1-0.2,0.1l-3,6.7c-0.1,0.2,0.1,0.3,0.2,0.3C88.7,9.2,93.6,9,98,9h0
		c4.4,0,9.3,0.3,13.9,1.2c0.2,0,0.3-0.1,0.2-0.3l-3-6.7c0-0.1-0.1-0.1-0.2-0.1l-0.3,0L107.5,2C105,1.5,100.9,1.7,98,2.8L98,2.8z"/>
	<path class="st0" d="M97.7,8C94,6.8,89.7,6.6,86.6,7.2l1.5-4.3l-1,0.8l-2.1,5.4c2.8-0.5,9.1-1,12.2-0.9C97.4,8.1,97.5,8,97.7,8"/>
	<path class="st0" d="M98.2,8c3.8-1.2,8.1-1.4,11.1-0.8l-1.5-4.3l1,0.8l2.1,5.4c-2.8-0.5-9.1-1-12.2-0.9C98.5,8.1,98.4,8,98.2,8"/>
	<path class="st0" d="M98.8,24.2v16.5c1-0.6,2.2-1.3,3.5-2.3V26.6L98.8,24.2z"/>
	<path class="st0" d="M102.3,12.2c-1.2-0.1-2.4-0.1-3.5-0.1V16l3.5,2.3V12.2z"/>
	<path class="st0" d="M109.4,23V12.8c-1.2-0.1-2.3-0.3-3.5-0.4v8.3L109.4,23z"/>
	<path class="st0" d="M105.9,28.9v6.5c1.2-1.2,2.4-2.5,3.5-4.1v0L105.9,28.9z"/>
	<polygon class="st0" points="109.4,31.3 109.4,31.3 109.4,31.2 	"/>
	<path class="st0" d="M112.9,25.4c1.6-3.2,2.8-7,3.5-11.4c-1.2-0.2-2.3-0.5-3.5-0.7L112.9,25.4L112.9,25.4z"/>
	<polygon class="st0" points="102.3,18.3 102.3,26.6 105.9,28.9 105.9,20.7 	"/>
	<path class="st0" d="M112.9,25.4l-3.5-2.3v8.2l0,0C110.7,29.5,111.9,27.6,112.9,25.4L112.9,25.4z"/>
	<path class="st0" d="M112.9,25.4C112.9,25.4,112.9,25.4,112.9,25.4L112.9,25.4L112.9,25.4z"/>
	<path class="st0" d="M5.6,53.3c0-3.4-0.3-3.8-2.1-4l-0.8-0.1c-0.2-0.1-0.1-0.7,0.1-0.8c1.8,0.1,2.8,0.1,4.1,0.1
		c1.2,0,2.3,0,3.5-0.1c0.2,0.1,0.2,0.7,0.1,0.8L10,49.3c-1.8,0.3-1.9,0.7-1.9,4v11.5c0,2.4-0.1,4.6-0.7,6c-1,2.5-3.2,4.5-6.1,4.5
		c-0.4,0-1.3,0-1.3-0.7c0-0.5,0.5-1.4,1.1-1.4c0.4,0,0.7,0.1,1.1,0.2c0.4,0.1,0.9,0.2,1.3,0.2c0.7,0,1-0.4,1.2-0.8
		c0.7-1.5,0.8-6.1,0.8-7.8V53.3z"/>
	<path class="st0" d="M10.4,60.5c0-5.2,3.9-9.2,9.3-9.2c6,0,9.1,4.4,9.1,9c0,5.3-4,9.1-9.1,9.1C13.9,69.4,10.4,65.3,10.4,60.5
		 M26.2,61.1c0-4.3-1.9-9-6.9-9c-2.7,0-6.2,1.9-6.2,7.6c0,3.9,1.9,8.9,7,8.9C23.2,68.6,26.2,66.2,26.2,61.1"/>
	<path class="st0" d="M34.7,60.6c-1.3,0-1.3,0.1-1.3,0.8v3.7c0,2.7,0.1,3.1,1.6,3.3l0.8,0.1c0.2,0.1,0.1,0.6-0.1,0.7
		C34.3,69,33.4,69,32.4,69c-1.1,0-2,0.1-3,0.1c-0.2-0.1-0.2-0.5-0.1-0.7l0.4-0.1c1.5-0.3,1.5-0.5,1.5-3.3v-9.4
		c0-2.7-0.2-3.2-1.5-3.3l-0.7-0.1c-0.2-0.1-0.1-0.6,0.1-0.7c1.3,0,2.2,0.1,3.3,0.1c1,0,1.9,0,3-0.1c0.2,0.1,0.2,0.5,0.1,0.7L35,52.4
		c-1.5,0.2-1.6,0.5-1.6,3.3v3c0,0.8,0.1,0.8,1.3,0.8h7.5c1.3,0,1.3,0,1.3-0.8v-3c0-2.7-0.1-3.1-1.6-3.3l-0.5-0.1
		c-0.2-0.1-0.1-0.6,0.1-0.7c1.2,0.1,2.1,0.1,3.2,0.1c1,0,1.9,0,3.1-0.1c0.2,0.1,0.2,0.5,0.1,0.7l-0.6,0.1c-1.5,0.2-1.6,0.5-1.6,3.3
		v9.4c0,2.7,0.1,3.1,1.6,3.3l0.6,0.1c0.2,0.1,0.1,0.6-0.1,0.7C46.5,69,45.7,69,44.6,69c-1.1,0-2,0-3.2,0.1c-0.2-0.1-0.2-0.5-0.1-0.7
		l0.5-0.1c1.6-0.3,1.6-0.5,1.6-3.3v-3.7c0-0.8-0.1-0.8-1.3-0.8H34.7z"/>
	<path class="st0" d="M65.7,64.5c0,0.8,0,3.9,0.1,4.6c-0.1,0.2-0.2,0.3-0.5,0.3C65,69,64.2,68,61.9,65.5l-6.1-6.9
		c-0.7-0.8-2.5-3-3-3.5h-0.1c-0.1,0.3-0.1,0.9-0.1,1.7v5.7c0,1.2,0,4.6,0.5,5.4c0.2,0.3,0.7,0.4,1.3,0.5l0.8,0.1
		c0.2,0.2,0.1,0.5-0.1,0.7C54,69,53.1,69,52.2,69c-1.1,0-1.8,0-2.7,0.1c-0.2-0.1-0.2-0.5-0.1-0.7l0.7-0.1c0.6-0.1,1-0.2,1.2-0.5
		c0.4-0.9,0.3-4.1,0.3-5.4v-7.6c0-0.7,0-1.3-0.6-1.9c-0.4-0.4-1-0.5-1.6-0.6L49,52.3c-0.2-0.2-0.2-0.5,0.1-0.7
		c1.1,0.1,2.5,0.1,3,0.1c0.4,0,0.9,0,1.2-0.1c0.5,1.3,3.6,4.8,4.5,5.7l2.5,2.8c1.8,2,3.1,3.5,4.3,4.7h0.1c0.1-0.1,0.1-0.5,0.1-1.1
		v-5.6c0-1.2,0-4.6-0.5-5.4c-0.2-0.2-0.6-0.4-1.6-0.5L62,52.3c-0.2-0.2-0.2-0.6,0-0.7c1.2,0.1,2.1,0.1,3.1,0.1c1.1,0,1.8,0,2.7-0.1
		c0.2,0.1,0.2,0.5,0.1,0.7l-0.4,0.1c-0.8,0.1-1.4,0.3-1.5,0.5c-0.4,0.9-0.4,4.2-0.4,5.4V64.5z"/>
	<path class="st0" d="M72.6,69.4c-2.2,0-3.6-0.7-4.1-1c-0.3-0.6-0.7-2.4-0.7-3.7c0.1-0.2,0.5-0.2,0.6-0.1c0.4,1.3,1.5,3.9,4.5,3.9
		c2.2,0,3.3-1.4,3.3-3c0-1.1-0.2-2.4-2.1-3.7l-2.5-1.6c-1.3-0.9-2.8-2.4-2.8-4.5c0-2.5,1.9-4.5,5.3-4.5c0.8,0,1.8,0.2,2.4,0.3
		c0.3,0.1,0.7,0.2,0.9,0.2c0.2,0.6,0.5,2.1,0.5,3.2c-0.1,0.2-0.5,0.2-0.7,0.1c-0.3-1.3-1-3-3.6-3c-2.6,0-3.1,1.7-3.1,2.9
		c0,1.5,1.3,2.6,2.2,3.2l2.1,1.3c1.6,1,3.3,2.5,3.3,5C78.2,67.4,76,69.4,72.6,69.4"/>
	<path class="st0" d="M93.7,59c-1.5,0-1.5,0.1-1.5,1v4.4c0,3.3,0.2,3.7,1.9,3.9l0.9,0.1c0.2,0.1,0.1,0.7-0.1,0.8
		C93.2,69,92.1,69,90.9,69c-1.3,0-2.4,0.1-3.6,0.1c-0.2-0.1-0.3-0.6-0.1-0.8l0.5-0.1c1.7-0.3,1.8-0.6,1.8-3.9V53.2
		c0-3.3-0.2-3.8-1.8-3.9L87,49.2c-0.2-0.1-0.1-0.7,0.1-0.8c1.5,0,2.6,0.1,3.9,0.1c1.2,0,2.3,0,3.6-0.1c0.2,0.1,0.2,0.7,0.1,0.8
		L94,49.3c-1.8,0.2-1.9,0.6-1.9,3.9v3.6c0,1,0.1,1,1.5,1h8.9c1.5,0,1.5,0,1.5-1v-3.6c0-3.3-0.1-3.7-1.9-3.9l-0.6-0.1
		c-0.2-0.1-0.1-0.7,0.1-0.8c1.4,0.1,2.5,0.1,3.7,0.1c1.2,0,2.3,0,3.7-0.1c0.2,0.1,0.2,0.7,0.1,0.8l-0.6,0.1
		c-1.8,0.2-1.9,0.6-1.9,3.9v11.1c0,3.3,0.1,3.7,1.9,3.9l0.7,0.1c0.2,0.1,0.1,0.7-0.1,0.8c-1.5-0.1-2.5-0.1-3.7-0.1
		c-1.3,0-2.4,0-3.7,0.1c-0.2-0.1-0.2-0.6-0.1-0.8l0.6-0.1c1.9-0.3,1.9-0.6,1.9-3.9V60c0-0.9-0.1-1-1.5-1H93.7z"/>
	<path class="st0" d="M109,60.5c0-5.2,3.9-9.2,9.3-9.2c6,0,9.1,4.4,9.1,9c0,5.3-4,9.1-9.1,9.1C112.5,69.4,109,65.3,109,60.5
		 M124.8,61.1c0-4.3-1.9-9-6.9-9c-2.7,0-6.2,1.9-6.2,7.6c0,3.9,1.9,8.9,7,8.9C121.8,68.6,124.8,66.2,124.8,61.1"/>
	<path class="st0" d="M132.1,65.1c0,2.7,0.1,3.1,1.7,3.3l0.7,0.1c0.2,0.1,0.1,0.6-0.1,0.7c-1.5-0.1-2.4-0.1-3.4-0.1
		c-1.1,0-2,0-3.2,0.1c-0.2-0.1-0.2-0.5-0.1-0.7l0.5-0.1c1.5-0.2,1.6-0.5,1.6-3.3v-9.6c0-2.2-0.1-2.7-1.2-2.8l-0.9-0.1
		c-0.2-0.2-0.2-0.5,0.1-0.7c1.4-0.2,3-0.2,5.2-0.2c2.2,0,3.8,0.3,5,1c1.2,0.8,2.1,2.1,2.1,3.9c0,2.4-1.5,3.6-2.6,4.2
		c-1.1,0.5-2.5,0.8-3.6,0.8c-0.2-0.1-0.2-0.5,0-0.5c2.8-0.5,3.8-2.1,3.8-4.4c0-2.5-1.5-4.2-4.2-4.2c-1.4,0-1.4,0.1-1.4,0.9V65.1z"/>
	<path class="st0" d="M143,55.7c0-2.7-0.1-3.2-1.6-3.3l-0.7-0.1c-0.2-0.1-0.1-0.6,0.1-0.7c1.3,0.1,2.1,0.1,3.3,0.1c1,0,1.9,0,3-0.1
		c0.2,0.1,0.2,0.5,0.1,0.7l-0.5,0.1c-1.5,0.2-1.6,0.5-1.6,3.3v3c0,0.5,0.1,1,0.3,1c0.2,0,0.5-0.2,0.7-0.3c0.4-0.3,1-1,1.3-1.3
		l2.8-2.8c0.5-0.5,1.8-1.8,2-2.2c0.1-0.2,0.2-0.3,0.2-0.4c0-0.1-0.1-0.2-0.4-0.3l-0.7-0.2c-0.2-0.2-0.2-0.5,0.1-0.7
		c0.9,0.1,2,0.1,2.9,0.1c0.9,0,1.8,0,2.6-0.1c0.2,0.1,0.2,0.5,0.1,0.7c-0.7,0.1-1.7,0.3-2.4,0.7c-0.7,0.4-2.2,1.6-3.7,3l-2.4,2.2
		c-0.4,0.4-0.6,0.6-0.6,0.8c0,0.2,0.2,0.4,0.5,0.8c2.5,2.8,4.5,5.2,6.5,7.3c0.6,0.6,1.2,1,2.1,1.1l0.7,0.1c0.2,0.1,0.1,0.6-0.1,0.7
		c-0.7-0.1-1.7-0.1-2.9-0.1c-1.1,0-2,0-3.2,0.1c-0.2-0.1-0.3-0.5-0.1-0.7l0.6-0.1c0.4-0.1,0.6-0.1,0.6-0.3c0-0.2-0.2-0.4-0.4-0.6
		c-0.5-0.6-1.2-1.3-2.2-2.5l-2.1-2.4c-1.5-1.7-1.9-2.2-2.5-2.2c-0.4,0-0.4,0.3-0.4,1.3v3.4c0,2.7,0.1,3.1,1.5,3.3l0.7,0.1
		c0.2,0.1,0.1,0.6-0.1,0.7c-1.3-0.1-2.2-0.1-3.2-0.1c-1.1,0-2,0-3,0.1c-0.2-0.1-0.2-0.5-0.1-0.7l0.5-0.1c1.4-0.2,1.4-0.5,1.4-3.3
		V55.7z"/>
	<path class="st0" d="M160.9,55.7c0-2.8-0.1-3.2-1.6-3.3l-0.7-0.1c-0.2-0.1-0.1-0.6,0.1-0.7c1.3,0.1,2.2,0.1,3.3,0.1
		c1,0,1.9,0,3.2-0.1c0.2,0.1,0.2,0.5,0.1,0.7l-0.7,0.1c-1.5,0.1-1.6,0.6-1.6,3.3V65c0,2.8,0.1,3.1,1.6,3.3l0.7,0.1
		c0.2,0.1,0.1,0.6-0.1,0.7C164,69,163.1,69,162,69c-1.1,0-2,0-3.3,0.1c-0.2-0.1-0.2-0.5-0.1-0.7l0.7-0.1c1.5-0.2,1.6-0.5,1.6-3.3
		V55.7z"/>
	<path class="st0" d="M183.5,64.5c0,0.8,0,3.9,0.1,4.6c-0.1,0.2-0.2,0.3-0.5,0.3c-0.3-0.4-1.1-1.4-3.3-3.9l-6.1-6.9
		c-0.7-0.8-2.5-3-3-3.5h-0.1c-0.1,0.3-0.1,0.9-0.1,1.7v5.7c0,1.2,0,4.6,0.5,5.4c0.2,0.3,0.7,0.4,1.3,0.5l0.8,0.1
		c0.2,0.2,0.1,0.5-0.1,0.7C171.9,69,171,69,170,69c-1.1,0-1.8,0-2.7,0.1c-0.2-0.1-0.2-0.5-0.1-0.7l0.7-0.1c0.6-0.1,1-0.2,1.1-0.5
		c0.4-0.9,0.3-4.1,0.3-5.4v-7.6c0-0.7,0-1.3-0.6-1.9c-0.4-0.4-1-0.5-1.6-0.6l-0.4-0.1c-0.2-0.2-0.2-0.5,0.1-0.7
		c1.1,0.1,2.5,0.1,3,0.1c0.4,0,0.9,0,1.2-0.1c0.5,1.3,3.6,4.8,4.5,5.7l2.5,2.8c1.8,2,3.1,3.5,4.3,4.7h0.1c0.1-0.1,0.1-0.5,0.1-1.1
		v-5.6c0-1.2,0-4.6-0.5-5.4c-0.2-0.2-0.6-0.4-1.6-0.5l-0.4-0.1c-0.2-0.2-0.2-0.6,0-0.7c1.2,0.1,2.1,0.1,3.1,0.1c1.1,0,1.8,0,2.7-0.1
		c0.2,0.1,0.2,0.5,0.1,0.7l-0.4,0.1c-0.8,0.1-1.4,0.3-1.5,0.5c-0.4,0.9-0.4,4.2-0.4,5.4V64.5z"/>
	<path class="st0" d="M190.4,69.4c-2.2,0-3.6-0.7-4.1-1c-0.3-0.6-0.7-2.4-0.7-3.7c0.1-0.2,0.5-0.2,0.6-0.1c0.4,1.3,1.5,3.9,4.5,3.9
		c2.2,0,3.3-1.4,3.3-3c0-1.1-0.2-2.4-2.1-3.7l-2.5-1.6c-1.3-0.9-2.8-2.4-2.8-4.5c0-2.5,1.9-4.5,5.3-4.5c0.8,0,1.7,0.2,2.4,0.3
		c0.3,0.1,0.7,0.2,0.9,0.2c0.2,0.6,0.5,2.1,0.5,3.2c-0.1,0.2-0.5,0.2-0.7,0.1c-0.3-1.3-1-3-3.6-3c-2.6,0-3.1,1.7-3.1,2.9
		c0,1.5,1.3,2.6,2.2,3.2l2.1,1.3c1.6,1,3.3,2.5,3.3,5C196,67.4,193.8,69.4,190.4,69.4"/>
</g>
</svg>
