<?xml version="1.0" encoding="utf-8"?>
<!-- Generator: Adobe Illustrator 19.2.1, SVG Export Plug-In . SVG Version: 6.00 Build 0)  -->
<svg version="1.1" id="Layer_1" xmlns="http://www.w3.org/2000/svg" xmlns:xlink="http://www.w3.org/1999/xlink" x="0px" y="0px"
	 viewBox="0 0 167.9 94.1" style="enable-background:new 0 0 167.9 94.1;" xml:space="preserve">
<style type="text/css">
	.st0{fill:#010101;}
</style>
<g>
	<g>
		<path class="st0" d="M0,47c0-26,21.1-47,47-47c26,0,47,21.1,47,47c0,26-21.1,47-47,47C21.1,94.1,0,73,0,47z M74,47.4h5.1
			L67.7,21.3h-7.5l11.5,26.1h-5.2v6.9c0,4.2-1.7,6-7.4,5.9v13.3h7.4V60.2h2.4c2.2,0.1,5.1-1.7,5.1-5.1V47.4z M38.1,21.3
			c-11.5,0-20.9,8-20.9,19.9c0,10,6,17.1,15,18.5v13.9h18.7V60.2h2.6c3-0.3,5.1-2.3,5.1-5.1v-7.7h5.1L52,21.3
			C52,21.3,45.2,21.3,38.1,21.3z M48.4,43.9c2.7,0,4.8-2.2,4.8-4.8c0-2.7-2.2-4.8-4.8-4.8c-2.7,0-4.8,2.2-4.8,4.8
			C43.6,41.8,45.7,43.9,48.4,43.9z"/>
	</g>
	<g>
		<path class="st0" d="M109.1,38.3h-3.3v-4.1h10.8c5.9,0,9.2,3,9.2,7.8c0,4.9-3.5,7.8-9.1,7.8c-0.5,0-3,0-3,0v6.2h3.8v4.1h-11.9
			v-4.1h3.3V38.3z M113.9,45.8c0,0,2.3,0,3.2,0c2.7,0,4.2-1.7,4.2-3.7c0-2.1-1.5-3.7-4.2-3.7c-0.5,0-3.2,0-3.2,0V45.8z"/>
		<path class="st0" d="M130.5,38.3h-3v-4.1H138c6.4,0,8.5,3.9,8.5,6.7c0,2.4-1.3,4.3-3.1,5.2c2.6,1.1,4.1,3.8,4.1,6.1
			c0,5.6-4.4,7.9-8.7,7.9h-11.5v-4.1h3.3V38.3z M135.3,56.1c0,0,2.8,0,3,0c2.5,0,4.2-1.4,4.2-3.7c0-2-1.3-3.7-4.2-3.7c-1,0-3,0-3,0
			V56.1z M135.3,44.6h2.8c2.1,0,3.6-1.3,3.6-3.2c0-1.9-1.4-3.1-3.6-3.1c-0.9,0-2.8,0-2.8,0V44.6z"/>
		<path class="st0" d="M162.6,38.3c-0.8-0.3-2-0.6-3.1-0.6c-3.2,0-4.2,1.8-4.2,3.3c0,1.9,1.2,2.4,2.7,2.8l2.7,0.8
			c3.4,1,7.1,2.2,7.1,7.5c0,4.9-2.9,8.4-9.4,8.4c-2.5,0-5.1-0.3-8.2-1.4v-6.8h4.8v3.4c1.2,0.6,2.5,0.7,3.9,0.7c2.8,0,4-1.5,4-3.4
			c0-1.3-0.7-2.3-3.7-3.2l-2.5-0.7c-4.7-1.4-6.3-3.4-6.3-7.4c0-4.1,2.5-7.7,9-7.7c2.8,0,5.6,0.5,7.5,1.4v6.1h-4.3V38.3z"/>
	</g>
</g>
</svg>
