<?xml version="1.0" encoding="utf-8"?>
<!-- Generator: Adobe Illustrator 19.2.1, SVG Export Plug-In . SVG Version: 6.00 Build 0)  -->
<svg version="1.1" id="Layer_1" xmlns="http://www.w3.org/2000/svg" xmlns:xlink="http://www.w3.org/1999/xlink" x="0px" y="0px"
	 viewBox="0 0 197.9 38.9" style="enable-background:new 0 0 197.9 38.9;" xml:space="preserve">
<style type="text/css">
	.st0{fill:#010101;}
</style>
<g>
	<path class="st0" d="M12.3,16.5c-0.1,0.1-0.1,0.3-0.1,0.7v9.4c0,0.7,0.5,1.3,1.6,1.6c0.7,0.2,2.4,0.4,5.2,0.6
		c0.4,0,0.6,0.1,0.6,0.3c0,0.2-0.2,0.3-0.5,0.3H0.6c-0.2,0-0.4-0.1-0.4-0.3c0-0.2,0.1-0.3,0.4-0.3c2.9-0.2,4.6-0.5,5.2-0.7
		c0.6-0.2,0.9-0.7,0.9-1.5L6.4,2.9c0-0.8-0.2-1.3-0.8-1.5C5,1.1,3.2,0.9,0.3,0.8C0.1,0.8,0,0.7,0,0.4S0.1,0.1,0.4,0
		c1,0,6.5,0,16.6,0c3.4,0,6.1,0.7,8.3,2.2c2.5,1.7,3.7,3.9,3.5,6.7c-0.2,2.5-1.6,4.4-4.1,5.7c-2.3,1.2-5,1.8-8.3,1.8
		c-1.9,0-3,0-3.3,0C12.6,16.4,12.4,16.4,12.3,16.5z M12.1,14.8c0,0.5,0.3,0.7,1.1,0.7H17c4,0,6-2.2,6-6.7c0-5.4-1.9-8-5.9-8H14
		c-0.7,0-1.2,0-1.4,0.1c-0.3,0.1-0.5,0.5-0.5,1.1V14.8z M29.6,27.7c-1.8-1.7-2.7-3.9-2.7-6.9c0-2.9,0.9-5.4,2.8-7.5
		c1.8-2.2,4.1-3.3,6.7-3.3c2.3,0,4.2,0.9,5.6,2.7c1.4,1.8,2.1,4.1,2.1,6.8c0,0.4-0.1,0.6-0.5,0.6H31.8c0,0.2,0,0.7-0.1,1.4
		c0,5.3,1.8,7.9,5.3,7.9c1.6,0,2.9-0.5,4-1.4c1.3-1.1,2.1-2.8,2.4-5c0-0.3,0.2-0.5,0.4-0.5c0.3,0,0.4,0.2,0.4,0.6
		c-0.3,2.2-1.1,3.9-2.5,5.2c-1.4,1.3-3.2,1.9-5.3,1.9C33.6,30.2,31.4,29.4,29.6,27.7z M33,12.8c-0.8,1.4-1.2,3.4-1.2,5.8
		c0,0.4,0.2,0.6,0.8,0.6h6.6c0.4,0,0.7-0.2,0.7-0.8c0.1-5.2-1.1-7.7-3.6-7.8C34.8,10.7,33.7,11.3,33,12.8z M44.4,10.9
		c0-0.1,0.1-0.3,0.4-0.3c1.6-0.1,4.1-0.2,7.4-0.5c0.4,0,0.6,0.1,0.6,0.5c0,0.7,0.1,1.9,0.2,3.4h0.2c0.7-1.7,1.6-2.8,2.5-3.3
		c0.7-0.4,1.9-0.6,3.5-0.7c1.6,0,3,0.5,4.1,1.6c1.1,1.1,1.7,2.5,1.7,4.1l-0.2,11.9c0,0.5,0.3,0.9,0.9,1c0.8,0.1,1.6,0.2,2.3,0.3
		c0.3,0,0.4,0.1,0.4,0.3c0,0.1-0.1,0.2-0.4,0.2H57.6c-0.3,0-0.4-0.1-0.4-0.2c0-0.2,0.1-0.3,0.4-0.3c1.9,0,2.8-0.4,2.8-1.4V14.3
		c0-2.3-0.9-3.4-2.7-3.4c-3.3,0-4.8,3.9-4.7,11.8l0,4.9c0,0.9,1,1.4,2.9,1.4c0.3,0,0.4,0.1,0.4,0.3c0,0.1-0.2,0.2-0.4,0.2H45
		c-0.2,0-0.3-0.1-0.3-0.2c0-0.2,0.1-0.3,0.4-0.3c1.3,0,2.1-0.1,2.5-0.2c0.8-0.3,1.2-0.9,1.2-1.9l-0.2-13.3c0-0.9-0.2-1.5-0.6-1.7
		c-0.4-0.2-1.5-0.4-3.2-0.5C44.5,11.2,44.4,11.1,44.4,10.9z M67.3,11.1c0-0.3,0.2-0.4,0.5-0.4c1.9,0.1,3.5-0.8,4.7-2.9
		c1-1.7,1.6-3.6,1.8-5.7c0-0.3,0.2-0.5,0.5-0.5c0.3,0,0.5,0.2,0.5,0.5c0,0.7,0,1.9,0,3.5c0,1.7,0,3,0,4c0,0.5,0.2,0.7,0.7,0.7h3.8
		c0.5,0,0.8,0.2,0.8,0.6c0,0.3-0.3,0.5-0.8,0.5h-4.5V25c0,2.7,0.7,4,2.2,4c2,0,3-1.8,3-5.3c0-0.4,0-1,0-1.8c0-0.8,0-1.4,0-1.8
		c0-0.3,0.1-0.5,0.4-0.5c0.2,0,0.3,0.2,0.3,0.5c0,0.4,0,1.1,0,2c0,1,0,1.7,0,2.1c0,2.3-0.4,3.8-1.3,4.7c-0.8,0.7-2.1,1.1-3.9,1.1
		c-1.5,0-2.6-0.4-3.6-1.2c-1-0.9-1.6-2.2-1.6-4c0-1.5,0-3.8,0-6.9c0-3.7,0-5.5,0-5.7c0-0.5-0.3-0.8-0.9-0.8h-2.2
		C67.5,11.5,67.3,11.4,67.3,11.1z M87.1,11.3c1.6-1,3.4-1.5,5.5-1.5c2.2,0,3.9,0.5,5.1,1.4c1.2,0.9,1.9,2.1,1.9,3.7v11.1
		c0,1.9,0.5,2.8,1.5,2.8c1.2,0,1.9-1.2,1.9-3.5c0-0.3,0-0.9,0-1.6c0-0.7,0-1.2,0-1.5c0-0.4,0.1-0.7,0.3-0.7c0.2,0,0.3,0.2,0.3,0.7
		v3.2c0,1.8-0.4,3-1.2,3.6c-0.6,0.5-1.8,0.8-3.3,0.8c-1.7,0-2.9-0.9-3.7-2.6c-0.1-0.3-0.2-0.4-0.3-0.4c-0.1,0-0.2,0.1-0.4,0.4
		c-0.8,1-1.5,1.7-2.2,2.1c-0.9,0.5-2.1,0.7-3.7,0.7c-1.6,0-2.8-0.4-3.7-1.3c-0.9-0.9-1.4-2.1-1.4-3.8c0-1,0.3-1.9,1-2.7
		c0.6-0.8,1.5-1.4,2.3-1.8c1.4-0.6,3.2-1,5.5-1.3c1.7-0.2,2.6-1,2.6-2.3v-3.5c0-2.1-1.2-3-3.6-2.9c-1,0-1.9,0.3-2.9,1
		c-1,0.6-1.5,1.2-1.5,1.7c0,0.1,0.1,0.2,0.4,0.3c0.4,0.1,0.6,0.2,0.6,0.2c1,0.5,1.5,1.3,1.5,2.3c0,0.7-0.2,1.3-0.7,1.7
		c-0.4,0.5-1,0.7-1.8,0.7c-0.8,0-1.4-0.3-1.9-0.8s-0.7-1.2-0.7-2C84.5,13.8,85.4,12.4,87.1,11.3z M90.7,29.1c1.2,0,2.3-0.5,3.1-1.5
		c0.8-1,1.3-2.1,1.3-3.3v-4.5c0-0.6-0.1-0.9-0.2-0.9c0,0-0.1,0-0.3,0.1c-0.1,0.1-0.4,0.2-0.9,0.3c-0.5,0.1-1.3,0.3-2.2,0.4
		c-1,0.1-1.8,0.7-2.3,1.7c-0.5,1-0.8,2.1-0.8,3.4C88.3,27.7,89.1,29.1,90.7,29.1z M108.7,11.7c1.6-1.4,3.5-2.1,5.6-2.1
		c0.9,0,2.1,0.2,3.6,0.5c-0.1-3,0.9-4.5,3.1-4.5c1.2,0,1.8,0.6,1.8,1.8c0,0.4-0.1,0.9-0.4,1.2c-0.3,0.3-0.7,0.5-1.2,0.4
		c-1-0.1-1.5-0.8-1.5-1.9c0-0.1-0.1-0.2-0.2-0.2c-0.6,0-0.9,0.7-0.9,2c0,0.9,0.1,1.4,0.3,1.6c2.4,1.8,3.6,3.7,3.5,5.7
		c-0.1,2.2-1,3.9-2.9,5c-1.5,0.9-3.5,1.4-5.7,1.4c-0.5,0-1.2-0.1-2.1-0.3c-0.9-0.2-1.6-0.3-2-0.3c-2,0-3,0.7-3,2.2
		c0,1.2,1.2,1.8,3.6,1.8c0.8,0,1.8,0,2.7-0.1c1.3-0.1,2.2-0.1,2.7-0.1c2.6,0,4.6,0.5,5.9,1.7c1.3,1.1,1.9,2.7,1.9,4.7
		c0,2.1-0.8,3.8-2.5,5s-3.8,1.8-6.4,1.8c-2.9,0-5.2-0.6-7.1-1.8c-1.9-1.1-2.8-2.4-2.8-3.8c0-0.7,0.4-1.3,1.2-1.8
		c0.1,0,1-0.5,2.6-1.2v-0.1c-2.2-1-3.3-2.6-3.3-4.8c0-1.1,0.2-1.9,0.6-2.4c0.5-0.8,1.5-1.4,3-1.8v-0.1c-1.6-1.3-2.4-2.7-2.4-4.3
		C106.4,14.8,107.2,13.1,108.7,11.7z M109.6,31c-1.1,0.5-1.7,1.6-1.7,3.1c0,2.7,2.1,4.1,6.4,4.2c1.9,0,3.7-0.3,5.1-1.1
		c1.5-0.8,2.2-1.9,2.2-3.4c0-2.3-2-3.6-6.1-3.7C112.8,30.2,110.8,30.5,109.6,31z M110.7,16.1c0,2.3,0.3,3.8,1.1,4.8
		c0.6,0.7,1.5,1.1,2.7,1.1c2.4,0,3.7-1.8,3.7-5.4c0-4.3-1.2-6.4-3.5-6.4C112,10.1,110.7,12.1,110.7,16.1z M133.3,27.4
		c0,1,1.4,1.5,4.3,1.5c0.3,0,0.4,0.1,0.4,0.3c0,0.2-0.1,0.3-0.4,0.3h-12.4c-0.2,0-0.4-0.1-0.4-0.3c0-0.2,0.1-0.3,0.4-0.3
		c1.8-0.1,2.7-0.2,3-0.3c0.5-0.2,0.7-0.7,0.7-1.7l-0.1-13.2c0-1-0.2-1.7-0.5-1.9c-0.3-0.2-1.4-0.4-3-0.5c-0.3,0-0.4-0.1-0.4-0.3
		c0-0.2,0.1-0.4,0.4-0.4c0.7,0,3.1-0.2,7.3-0.5c0.4,0,0.7,0.2,0.7,0.7c0,1.4,0.1,2.6,0.1,3.7h0.1c0.7-1.5,1.2-2.4,1.5-2.8
		c0.8-1,1.8-1.6,3.2-1.7c1.2-0.1,2.1,0.2,2.8,0.9c0.7,0.7,1.1,1.6,1.1,2.6c0,0.8-0.2,1.4-0.7,1.9c-0.5,0.5-1.1,0.7-1.9,0.7
		c-0.7,0-1.3-0.3-1.7-0.8c-0.4-0.5-0.5-0.9-0.5-1.5c0-1,0.3-1.7,0.8-2c0.5-0.4,0.8-0.6,0.7-0.7c0-0.3-0.3-0.4-0.9-0.4
		c-0.3,0-0.7,0.1-1.2,0.4c-1.2,0.7-2,1.8-2.4,3.1c-0.4,1.3-0.7,3.6-0.8,6.9L133.3,27.4z M146.2,11.3c1.6-1,3.5-1.5,5.5-1.5
		c2.2,0,3.9,0.5,5.2,1.5c1.2,0.9,1.8,2.1,1.8,3.6V26c0,1.8,0.5,2.7,1.5,2.7c1.2,0,1.8-1.2,1.8-3.5c0-0.3,0-0.9,0-1.6
		c0-0.7,0-1.2,0-1.5c0-0.4,0.1-0.7,0.3-0.7c0.2,0,0.3,0.2,0.3,0.7v3.1c0,1.8-0.4,3-1.2,3.6c-0.6,0.5-1.7,0.8-3.2,0.8
		c-1.7,0-2.9-0.9-3.7-2.6c-0.1-0.3-0.2-0.4-0.3-0.4s-0.2,0.1-0.3,0.4c-0.8,1-1.6,1.8-2.3,2.1c-0.9,0.5-2.1,0.7-3.7,0.7
		c-1.5,0-2.8-0.4-3.7-1.3c-0.9-0.8-1.4-2.1-1.4-3.7c0-1,0.3-1.9,1-2.8c0.6-0.8,1.4-1.4,2.2-1.8c1.4-0.6,3.3-1,5.5-1.3
		c1.7-0.2,2.6-0.9,2.6-2.2v-3.5c0-2.1-1.2-3.1-3.6-3c-0.9,0-1.9,0.4-2.9,1c-1,0.6-1.5,1.2-1.5,1.6c0,0.1,0.1,0.2,0.3,0.3
		c0.4,0.1,0.6,0.2,0.7,0.2c0.9,0.5,1.4,1.2,1.4,2.2c0,0.7-0.2,1.3-0.7,1.8c-0.4,0.5-1,0.7-1.8,0.7c-0.8,0-1.4-0.3-1.9-0.8
		c-0.5-0.6-0.7-1.3-0.7-2C143.6,13.8,144.4,12.4,146.2,11.3z M149.8,29.2c1.2,0,2.2-0.5,3.1-1.4c0.8-1,1.3-2.1,1.3-3.3v-4.6
		c0-0.6,0-0.9-0.2-0.9c-0.1,0-0.2,0-0.3,0.1c-0.1,0.1-0.4,0.2-1,0.3c-0.5,0.1-1.3,0.2-2.2,0.4c-1,0.1-1.8,0.7-2.3,1.7
		c-0.5,1-0.8,2.1-0.8,3.4C147.4,27.7,148.2,29.2,149.8,29.2z M185,11.2c0.8-0.9,2-1.3,3.7-1.3c1.8,0,3.3,0.5,4.4,1.5
		c1.2,1,1.7,2.3,1.7,3.9l-0.3,12.1c0,1,0.9,1.5,2.9,1.5c0.3,0,0.5,0.1,0.5,0.3c0,0.1-0.2,0.2-0.5,0.2h-10.1c-0.3,0-0.5-0.1-0.5-0.2
		c0-0.2,0.1-0.3,0.5-0.3c1.9,0,2.9-0.5,2.9-1.5l0.1-13.4c0-2.1-0.9-3.3-2.7-3.3c-3.1-0.1-4.6,4.1-4.6,12.7v4c0,0.6,0.3,1,0.8,1.2
		c0.2,0.1,0.8,0.2,1.7,0.3c0.3,0,0.5,0.1,0.5,0.3c0,0.1-0.1,0.2-0.5,0.2h-9.8c-0.3,0-0.5-0.1-0.5-0.2c0-0.2,0.1-0.3,0.5-0.3
		c1.7,0,2.6-0.5,2.8-1.5l0.1-13.3c0-2.1-0.8-3.1-2.3-3.1c-2,0-3.4,1.5-4.1,4.4c-0.4,1.8-0.6,4.5-0.6,8.2v3.9c0,0.6,0.3,1,0.8,1.2
		c0.2,0.1,0.8,0.2,1.7,0.3c0.3,0,0.5,0.1,0.5,0.3c0,0.1-0.1,0.2-0.5,0.2h-10.2c-0.3,0-0.4-0.1-0.4-0.2c0-0.2,0.1-0.3,0.5-0.3
		c1.6-0.1,2.6-0.2,2.8-0.4c0.2-0.2,0.4-0.8,0.4-1.8v-13c0-0.9-0.1-1.5-0.4-1.7c-0.4-0.3-1.5-0.5-3.2-0.7c-0.3,0-0.4-0.1-0.4-0.3
		c0-0.2,0.1-0.4,0.4-0.4c1.5-0.1,4-0.2,7.4-0.4c0.4,0,0.6,0.1,0.6,0.5c0,0.8,0,2,0.1,3.6h0.2c1-2.8,3-4.2,5.8-4.2
		c1.5,0,2.8,0.4,3.8,1.2c1,0.8,1.6,2,1.7,3.5c0,0,0,0,0.2,0C184,12.9,184.5,11.8,185,11.2z"/>
</g>
</svg>
